<svg width="80" height="80" viewBox="0 0 80 80" fill="none" xmlns="http://www.w3.org/2000/svg">
<path fill-rule="evenodd" clip-rule="evenodd" d="M40.982 14.7252C44.0505 14.2527 46.4001 11.6008 46.4001 8.40005C46.4001 4.86543 43.5348 2.00006 40.0002 2.00006C36.4655 2.00006 33.6002 4.86543 33.6002 8.40005C33.6002 11.6008 35.9498 14.2528 39.0184 14.7252V19.6004C39.0184 19.6632 39.0243 19.7246 39.0356 19.7842L21.9608 28.3215C21.6282 28.4878 21.4181 28.8278 21.4181 29.1997V38.6181H16.7254C16.253 35.5495 13.601 33.1998 10.4002 33.1998C6.86562 33.1998 4.00024 36.0652 4.00024 39.5998C4.00024 43.1344 6.86562 45.9998 10.4002 45.9998C13.601 45.9998 16.2529 43.6502 16.7254 40.5817H21.4181V49.9997C21.4181 50.359 21.6143 50.6895 21.9297 50.8616L39.0399 60.1944C39.0258 60.2607 39.0184 60.3294 39.0184 60.3999V65.2749C35.9498 65.7473 33.6002 68.3993 33.6002 71.6001C33.6002 75.1347 36.4655 78.0001 40.0002 78.0001C43.5348 78.0001 46.4001 75.1347 46.4001 71.6001C46.4001 68.3993 44.0505 65.7474 40.982 65.2749V60.3999C40.982 60.3293 40.9746 60.2604 40.9604 60.1941L58.07 50.8616C58.3854 50.6895 58.5816 50.359 58.5816 49.9997V40.5817H63.2749C63.7474 43.6502 66.3993 45.9998 69.6001 45.9998C73.1347 45.9998 76.0001 43.1344 76.0001 39.5998C76.0001 36.0652 73.1347 33.1998 69.6001 33.1998C66.3993 33.1998 63.7473 35.5495 63.2749 38.6181H58.5816V29.1997C58.5816 28.8278 58.3715 28.4878 58.0389 28.3215L40.9648 19.7845C40.9761 19.7248 40.982 19.6633 40.982 19.6004V14.7252ZM44.4365 8.40005C44.4365 10.8502 42.4503 12.8364 40.0002 12.8364C37.55 12.8364 35.5638 10.8502 35.5638 8.40005C35.5638 5.94992 37.55 3.96369 40.0002 3.96369C42.4503 3.96369 44.4365 5.94992 44.4365 8.40005ZM23.3817 49.4168V39.6285C23.382 39.619 23.3821 39.6095 23.3821 39.5999L23.3819 39.5813L23.3817 39.5712V30.7883L39.018 38.6065V57.9457L23.3817 49.4168ZM40.9817 57.9457L56.618 49.4168V30.7883L40.9817 38.6065V57.9457ZM39.9999 36.902L55.4044 29.1997L39.9999 21.4974L24.5953 29.1997L39.9999 36.902ZM10.4002 44.0362C12.8504 44.0362 14.8366 42.0499 14.8366 39.5998C14.8366 37.1497 12.8504 35.1635 10.4002 35.1635C7.9501 35.1635 5.96388 37.1497 5.96388 39.5998C5.96388 42.0499 7.9501 44.0362 10.4002 44.0362ZM69.6001 44.0362C72.0502 44.0362 74.0364 42.0499 74.0364 39.5998C74.0364 37.1497 72.0502 35.1635 69.6001 35.1635C67.1499 35.1635 65.1637 37.1497 65.1637 39.5998C65.1637 42.0499 67.1499 44.0362 69.6001 44.0362ZM44.4365 71.6001C44.4365 74.0502 42.4503 76.0364 40.0002 76.0364C37.55 76.0364 35.5638 74.0502 35.5638 71.6001C35.5638 69.1499 37.55 67.1637 40.0002 67.1637C42.4503 67.1637 44.4365 69.1499 44.4365 71.6001Z" fill="url(#paint0_linear_572_1087)"/>
<defs>
<linearGradient id="paint0_linear_572_1087" x1="4.00024" y1="12.6876" x2="79.2777" y2="73.9742" gradientUnits="userSpaceOnUse">
<stop stop-color="#1E74EC"/>
<stop offset="1" stop-color="#002984"/>
</linearGradient>
</defs>
</svg>
