<svg width="137" height="31" viewBox="0 0 137 31" fill="none" xmlns="http://www.w3.org/2000/svg">
<path fill-rule="evenodd" clip-rule="evenodd" d="M80.9509 0.559973C73.1252 1.23802 66.5886 5.99946 64.8714 12.2726C63.924 15.7337 64.4589 19.4692 66.3454 22.5654C66.6514 23.0676 66.9679 23.5563 67.0488 23.6513C67.1795 23.8048 67.5631 23.5429 70.4735 21.3131C72.276 19.9321 74.2329 18.4346 74.8221 17.9855L75.8934 17.1689L75.4058 16.3889C73.9779 14.1048 73.729 11.6975 74.6701 9.27246C75.2364 7.81338 76.154 6.63949 77.6432 5.46909C81.6057 2.35484 87.688 2.138 91.9993 4.95728C92.6969 5.41341 93.6294 6.20731 94.0047 6.66453C94.0605 6.73239 95.9873 5.24367 95.9873 5.13271C95.9873 4.95978 94.2192 3.72851 93.0229 3.06822C90.5899 1.72539 88.1059 0.952436 85.2192 0.639704C83.9679 0.504093 82.0158 0.46767 80.9509 0.559973ZM51.6057 0.702967C46.906 0.941558 41.72 1.6264 38.2377 2.4682L37.115 2.73962L37.0835 7.20658L37.0518 11.6735L38.1142 10.9631C40.369 9.45497 42.9947 8.21023 45.9768 7.23591C46.9158 6.92907 47.7479 6.67801 47.826 6.67801C47.9335 6.67801 47.9679 9.56394 47.9679 18.6025V30.5271H51.6663H55.3648V17.852V5.17691L55.6376 5.08181C56.3013 4.85041 60.8418 4.40785 65.3607 4.13424C66.7567 4.04972 67.9221 3.96151 67.9505 3.93826C67.9788 3.91491 67.9626 3.24923 67.9146 2.45872L67.8273 1.02159L65.9918 0.901943C61.1836 0.588512 55.4287 0.508882 51.6057 0.702967ZM30.5669 0.854845C30.3668 0.873804 29.6028 0.938663 28.8692 0.999034C19.085 1.80451 11.3135 5.48745 6.46292 11.6175C2.84557 16.1889 0.793469 22.0543 0.589023 28.4066L0.52063 30.5271H5.55334H10.586L10.6698 28.6062C10.803 25.5583 11.1052 22.9629 11.6051 20.5733L11.7356 19.9497H19.1808H26.6259V25.2384V30.5271H30.385H34.1441V15.6588V0.790581L32.5374 0.805548C31.6536 0.813731 30.767 0.835985 30.5669 0.854845ZM104.506 15.584L104.536 30.3774L105.749 30.5024C106.416 30.5712 108.817 30.6547 111.084 30.6881C115.513 30.7534 117.713 30.6476 120.784 30.2219C127.768 29.254 132.631 26.9443 134.988 23.4769C135.456 22.7875 136.194 21.1809 136.264 20.6997L136.307 20.4018L134.765 20.2307C133.331 20.0715 129.505 19.7443 127.387 19.5996L126.47 19.537L125.66 20.866C124.69 22.4563 123.653 23.6694 122.283 24.8167C119.582 27.0788 116.641 28.2259 112.873 28.4876L111.873 28.5571V14.9732C111.873 7.50204 111.855 1.3893 111.833 1.3893C111.811 1.3893 111.209 1.32185 110.496 1.23932C108.957 1.0617 105.602 0.790581 104.941 0.790581H104.475L104.506 15.584ZM26.6259 10.0708V16.8563H19.6534C13.8536 16.8563 12.6808 16.8334 12.6808 16.7205C12.6808 16.6458 12.8764 16.0985 13.1156 15.5044C15.5933 9.34641 19.7522 5.35124 25.5345 3.57444C26.0347 3.42076 26.4849 3.29274 26.5349 3.29014C26.585 3.28745 26.6259 6.33873 26.6259 10.0708ZM94.6417 10.4804C92.4807 12.1321 90.5387 13.6249 90.3262 13.7978L89.9399 14.1121L90.5322 15.0984C92.1054 17.7186 92.0827 20.7022 90.4693 23.3424C89.7269 24.5576 88.2564 25.9287 86.8296 26.7366C84.7952 27.8884 81.8013 28.4967 79.4398 28.2382C76.6794 27.9358 74.2586 26.9062 72.4968 25.285C72.1112 24.9301 71.7398 24.6397 71.6714 24.6397C71.603 24.6396 71.1426 24.9747 70.6482 25.3844L69.7492 26.1291L69.9843 26.3438C70.1136 26.4618 70.6286 26.8392 71.1288 27.1823C73.7292 28.9661 76.651 30.0834 79.9202 30.5442C81.951 30.8304 85.2473 30.7629 87.1369 30.3963C92.1192 29.4298 96.3791 26.8294 98.9371 23.1927C101.579 19.4368 102.138 14.8588 100.467 10.6521C100.099 9.725 98.979 7.7558 98.7186 7.57808C98.6108 7.50444 97.5135 8.28547 94.6417 10.4804Z" fill="#989AA9"/>
</svg>
