<svg width="32" height="32" viewBox="0 0 32 32" fill="none" xmlns="http://www.w3.org/2000/svg">
<path fill-rule="evenodd" clip-rule="evenodd" d="M22.4578 8.73058C20.8058 7.15498 18.6011 6.29663 16.3201 6.3319C12.1459 6.3319 8.60081 9.14797 7.33679 12.94C6.66657 14.9271 6.66657 17.0789 7.33678 19.0661H7.34265C8.61254 22.8522 12.1518 25.6683 16.3259 25.6683C18.4806 25.6683 20.3305 25.1172 21.7641 24.1437V24.1398C23.4514 23.0228 24.6038 21.2649 24.9624 19.2778H16.3201V13.1165H31.4118C31.5999 14.1865 31.6881 15.28 31.6881 16.3676C31.6881 21.2341 29.9489 25.3484 26.9228 28.1351L26.926 28.1375C24.2745 30.5833 20.6353 32.0001 16.3201 32.0001C10.2704 32.0001 4.7382 28.5902 2.02205 23.1873C-0.247266 18.6663 -0.24726 13.3398 2.02207 8.81881C4.73822 3.41003 10.2704 0.000101659 16.3201 0.000101659C20.2943 -0.0469312 24.1334 1.44636 27.0259 4.16251L22.4578 8.73058Z" fill="white"/>
</svg>
