<svg width="32" height="32" viewBox="0 0 32 32" fill="none" xmlns="http://www.w3.org/2000/svg">
<path d="M29.6313 -0.000488281H2.3625C1.05625 -0.000488281 0 1.03076 0 2.30576V29.687C0 30.962 1.05625 31.9995 2.3625 31.9995H29.6313C30.9375 31.9995 32 30.962 32 29.6933V2.30576C32 1.03076 30.9375 -0.000488281 29.6313 -0.000488281ZM9.49375 27.2683H4.74375V11.9933H9.49375V27.2683ZM7.11875 9.91201C5.59375 9.91201 4.3625 8.68076 4.3625 7.16201C4.3625 5.64326 5.59375 4.41201 7.11875 4.41201C8.6375 4.41201 9.86875 5.64326 9.86875 7.16201C9.86875 8.67451 8.6375 9.91201 7.11875 9.91201ZM27.2687 27.2683H22.525V19.8433C22.525 18.0745 22.4937 15.7933 20.0562 15.7933C17.5875 15.7933 17.2125 17.7245 17.2125 19.7183V27.2683H12.475V11.9933H17.025V14.0808H17.0875C17.7187 12.8808 19.2688 11.612 21.575 11.612C26.3813 11.612 27.2687 14.7745 27.2687 18.887V27.2683V27.2683Z" fill="white"/>
</svg>
