<svg width="52" height="53" viewBox="0 0 52 53" fill="none" xmlns="http://www.w3.org/2000/svg">
<path d="M31.0002 22.0005L30.3495 22.7597C30.7462 23.0998 31.3379 23.0771 31.7074 22.7076L31.0002 22.0005ZM42.0002 11.0005L42.7074 11.7076C42.8949 11.5201 43.0002 11.2657 43.0002 11.0005H42.0002ZM42.0002 6.50049L41.7062 5.54471C41.2866 5.67381 41.0002 6.06148 41.0002 6.50049H42.0002ZM48.5002 4.50049L49.2074 3.79338C48.9454 3.53146 48.5602 3.43578 48.2062 3.54471L48.5002 4.50049ZM51.0002 7.00049L51.956 7.29457C52.065 6.94054 51.9693 6.5553 51.7074 6.29338L51.0002 7.00049ZM49.0002 13.5005V14.5005C49.4392 14.5005 49.8269 14.2142 49.956 13.7946L49.0002 13.5005ZM44.0002 13.5005V12.5005C43.727 12.5005 43.4656 12.6123 43.2769 12.81L44.0002 13.5005ZM33.5002 24.5005L32.7769 23.81C32.4018 24.203 32.409 24.8235 32.7931 25.2076L33.5002 24.5005ZM36.5002 27.5005L37.2149 28.2C37.5982 27.8083 37.5949 27.1809 37.2073 26.7934L36.5002 27.5005ZM13.5002 51.0005L13.8438 51.9396C13.9838 51.8884 14.1106 51.8065 14.2149 51.7L13.5002 51.0005ZM8.50024 51.5005L8.16391 52.4422L8.16391 52.4422L8.50024 51.5005ZM4.00024 47.0005L3.05156 47.3167L3.05156 47.3167L4.00024 47.0005ZM4.00024 42.5005L3.29314 41.7934C3.15265 41.9339 3.05719 42.113 3.01895 42.308L4.00024 42.5005ZM27.5002 19.0005L28.151 18.2412C27.7542 17.9012 27.1626 17.9239 26.7931 18.2934L27.5002 19.0005ZM8.00024 15.5005L7.32196 16.2353C7.50669 16.4058 7.74885 16.5005 8.00024 16.5005V15.5005ZM15.5002 15.5005V16.5005C16.0525 16.5005 16.5002 16.0528 16.5002 15.5005H15.5002ZM15.5002 8.50049H16.5002C16.5002 8.26178 16.4149 8.03094 16.2595 7.8497L15.5002 8.50049ZM9.50024 1.50049V0.500488C9.10971 0.500488 8.75492 0.72783 8.59173 1.08263C8.42855 1.43743 8.48683 1.85477 8.74099 2.15128L9.50024 1.50049ZM17.0002 1.50049L17.5071 0.638471C17.3535 0.548126 17.1785 0.500488 17.0002 0.500488V1.50049ZM25.5002 9.50049L26.4238 9.11703L26.4238 9.11703L25.5002 9.50049ZM25.5002 18.5005L24.5266 18.2724C24.4315 18.6786 24.5984 19.1011 24.9455 19.3325L25.5002 18.5005ZM27.0002 19.5005L27.7074 20.2076C27.9192 19.9958 28.0249 19.7001 27.9954 19.402C27.9659 19.1038 27.8042 18.8346 27.5549 18.6684L27.0002 19.5005ZM19.5002 27.0005L18.7931 27.7076C19.1837 28.0981 19.8168 28.0981 20.2074 27.7076L19.5002 27.0005ZM17.5002 25.0005L18.2074 24.2934C17.978 24.064 17.6516 23.9601 17.3319 24.0148L17.5002 25.0005ZM10.5002 25.0005L10.2272 25.9625L10.2272 25.9625L10.5002 25.0005ZM1.50024 15.5005H0.500244C0.500244 15.6568 0.536881 15.8109 0.607213 15.9505L1.50024 15.5005ZM1.50024 9.50049L2.17852 8.76568C1.88666 8.49627 1.46302 8.42514 1.09917 8.58444C0.73532 8.74375 0.500244 9.10329 0.500244 9.50049H1.50024ZM28.5002 36.0005L27.7707 35.3165C27.4016 35.7103 27.4115 36.3259 27.7931 36.7076L28.5002 36.0005ZM42.0002 49.5005L41.2931 50.2076C41.4116 50.3261 41.558 50.4129 41.7188 50.4601L42.0002 49.5005ZM49.5002 49.0005L50.2147 49.7002L50.2147 49.7002L49.5002 49.0005ZM50.5002 42.5005L51.486 42.3321C51.4511 42.128 51.3537 41.9398 51.2074 41.7934L50.5002 42.5005ZM36.0002 28.0005L36.7074 27.2934C36.5159 27.1019 36.2549 26.9963 35.9841 27.0006C35.7133 27.005 35.4559 27.119 35.2707 27.3165L36.0002 28.0005ZM7.79314 42.7934C7.40261 43.1839 7.40261 43.8171 7.79314 44.2076C8.18366 44.5981 8.81683 44.5981 9.20735 44.2076L7.79314 42.7934ZM27.2074 26.2076C27.5979 25.8171 27.5979 25.1839 27.2074 24.7934C26.8168 24.4029 26.1837 24.4029 25.7931 24.7934L27.2074 26.2076ZM11.2931 46.2934C10.9026 46.6839 10.9026 47.3171 11.2931 47.7076C11.6837 48.0981 12.3168 48.0981 12.7074 47.7076L11.2931 46.2934ZM30.7074 29.7076C31.0979 29.3171 31.0979 28.6839 30.7074 28.2934C30.3168 27.9029 29.6837 27.9029 29.2931 28.2934L30.7074 29.7076ZM31.7074 22.7076L42.7074 11.7076L41.2931 10.2934L30.2931 21.2934L31.7074 22.7076ZM43.0002 11.0005V6.50049H41.0002V11.0005H43.0002ZM42.2943 7.45627L48.7943 5.45627L48.2062 3.54471L41.7062 5.54471L42.2943 7.45627ZM47.7931 5.2076L50.2931 7.7076L51.7074 6.29338L49.2074 3.79338L47.7931 5.2076ZM50.0445 6.7064L48.0445 13.2064L49.956 13.7946L51.956 7.29457L50.0445 6.7064ZM49.0002 12.5005H44.0002V14.5005H49.0002V12.5005ZM43.2769 12.81L32.7769 23.81L34.2236 25.191L44.7236 14.191L43.2769 12.81ZM32.7931 25.2076L35.7931 28.2076L37.2073 26.7934L34.2074 23.7934L32.7931 25.2076ZM35.7855 26.801L12.7855 50.301L14.2149 51.7L37.2149 28.2L35.7855 26.801ZM13.5002 51.0005C13.1566 50.0614 13.1567 50.0613 13.1569 50.0613C13.1569 50.0613 13.157 50.0612 13.1571 50.0612C13.1572 50.0611 13.1573 50.0611 13.1574 50.0611C13.1574 50.0611 13.1573 50.0611 13.157 50.0612C13.1564 50.0614 13.1551 50.0619 13.153 50.0627C13.1489 50.0641 13.1419 50.0667 13.1321 50.0701C13.1125 50.077 13.0819 50.0876 13.0414 50.1013C12.9602 50.1286 12.8397 50.168 12.6884 50.2137C12.3846 50.3054 11.963 50.4209 11.4909 50.5168C10.4889 50.7202 9.47736 50.7876 8.83658 50.5587L8.16391 52.4422C9.36199 52.8701 10.8504 52.6876 11.8887 52.4768C12.4367 52.3655 12.9203 52.2329 13.2667 52.1283C13.4405 52.0758 13.5813 52.0299 13.6802 51.9965C13.7297 51.9798 13.7688 51.9663 13.7964 51.9565C13.8102 51.9517 13.8212 51.9478 13.8291 51.9449C13.8331 51.9435 13.8363 51.9423 13.8388 51.9414C13.84 51.941 13.8411 51.9406 13.8419 51.9403C13.8423 51.9401 13.8427 51.94 13.843 51.9399C13.8432 51.9398 13.8434 51.9398 13.8435 51.9397C13.8437 51.9397 13.8438 51.9396 13.5002 51.0005ZM8.83658 50.5587C7.76396 50.1757 6.97412 49.7069 6.3703 49.11C5.76921 48.5158 5.30261 47.7453 4.94893 46.6843L3.05156 47.3167C3.48379 48.6134 4.09695 49.675 4.96425 50.5323C5.82883 51.387 6.89603 51.9894 8.16391 52.4422L8.83658 50.5587ZM4.94893 46.6843C4.73822 46.0521 4.72099 45.0981 4.78899 44.2009C4.82148 43.7721 4.87039 43.3905 4.91119 43.1164C4.93153 42.9798 4.9497 42.871 4.96251 42.7977C4.96892 42.761 4.97397 42.7333 4.97728 42.7156C4.97893 42.7067 4.98015 42.7003 4.98088 42.6965C4.98124 42.6946 4.98148 42.6933 4.98159 42.6927C4.98165 42.6924 4.98167 42.6923 4.98167 42.6924C4.98166 42.6924 4.98165 42.6924 4.98163 42.6925C4.98162 42.6926 4.9816 42.6927 4.98159 42.6927C4.98157 42.6929 4.98154 42.693 4.00024 42.5005C3.01895 42.308 3.01892 42.3081 3.01889 42.3083C3.01887 42.3084 3.01884 42.3086 3.01881 42.3087C3.01876 42.309 3.01869 42.3093 3.01862 42.3097C3.01848 42.3104 3.0183 42.3113 3.01809 42.3124C3.01768 42.3145 3.01713 42.3174 3.01646 42.3209C3.01512 42.3279 3.01328 42.3376 3.011 42.3499C3.00644 42.3744 3.0001 42.4092 2.99239 42.4533C2.97699 42.5414 2.95607 42.6669 2.933 42.8219C2.88697 43.1311 2.83168 43.5619 2.79471 44.0497C2.72378 44.9857 2.70654 46.2817 3.05156 47.3167L4.94893 46.6843ZM4.70735 43.2076L28.2073 19.7076L26.7931 18.2934L3.29314 41.7934L4.70735 43.2076ZM26.8494 19.7597L30.3495 22.7597L31.651 21.2412L28.151 18.2412L26.8494 19.7597ZM8.00024 16.5005H15.5002V14.5005H8.00024V16.5005ZM16.5002 15.5005V8.50049H14.5002V15.5005H16.5002ZM16.2595 7.8497L10.2595 0.849697L8.74099 2.15128L14.741 9.15128L16.2595 7.8497ZM9.50024 2.50049H17.0002V0.500488H9.50024V2.50049ZM17.0002 1.50049C16.4934 2.36251 16.4933 2.36244 16.4932 2.36239C16.4932 2.36239 16.4931 2.36236 16.4931 2.36237C16.4932 2.36238 16.4933 2.36246 16.4935 2.36259C16.494 2.36286 16.4948 2.36338 16.4961 2.36413C16.4987 2.36564 16.5028 2.36811 16.5086 2.37153C16.5201 2.37836 16.5378 2.38898 16.5615 2.40325C16.6089 2.43179 16.6799 2.47494 16.7717 2.53171C16.9552 2.64528 17.2213 2.81313 17.5467 3.02729C18.1984 3.45626 19.0828 4.06778 20.0151 4.79832C21.9297 6.29854 23.8612 8.16073 24.5767 9.88395L26.4238 9.11703C25.4903 6.86876 23.1718 4.73095 21.2487 3.22404C20.2621 2.45102 19.3307 1.80719 18.6463 1.35671C18.3036 1.13114 18.0216 0.95323 17.824 0.830979C17.7252 0.769835 17.6474 0.722561 17.5937 0.690154C17.5668 0.67395 17.5459 0.661458 17.5313 0.652803C17.524 0.648476 17.5184 0.645108 17.5143 0.642714C17.5123 0.641517 17.5107 0.640563 17.5095 0.639856C17.5089 0.639502 17.5084 0.639209 17.508 0.638978C17.5078 0.638863 17.5076 0.638736 17.5075 0.638678C17.5073 0.638567 17.5071 0.638471 17.0002 1.50049ZM24.5767 9.88395C25.1503 11.2655 25.1764 13.3028 25.0098 15.1268C24.9288 16.0137 24.807 16.8053 24.7053 17.3751C24.6546 17.6594 24.6091 17.8871 24.5767 18.0423C24.5605 18.1198 24.5475 18.1791 24.5389 18.2181C24.5345 18.2376 24.5313 18.2521 24.5292 18.2612C24.5281 18.2658 24.5274 18.269 24.5269 18.2709C24.5267 18.2719 24.5266 18.2725 24.5265 18.2727C24.5265 18.2728 24.5265 18.2729 24.5265 18.2728C24.5265 18.2728 24.5265 18.2727 24.5265 18.2727C24.5266 18.2726 24.5266 18.2724 25.5002 18.5005C26.4739 18.7285 26.4739 18.7284 26.474 18.7281C26.474 18.7281 26.4741 18.7278 26.4741 18.7276C26.4742 18.7272 26.4743 18.7267 26.4744 18.7262C26.4747 18.725 26.4751 18.7235 26.4755 18.7217C26.4763 18.718 26.4775 18.7129 26.479 18.7065C26.4819 18.6937 26.486 18.6754 26.4912 18.652C26.5016 18.6052 26.5163 18.5377 26.5344 18.4516C26.5704 18.2793 26.6197 18.0322 26.6742 17.7264C26.7832 17.1158 26.9141 16.2661 27.0015 15.3087C27.1718 13.4442 27.1979 10.9815 26.4238 9.11703L24.5767 9.88395ZM24.9455 19.3325L26.4455 20.3325L27.5549 18.6684L26.0549 17.6684L24.9455 19.3325ZM26.2931 18.7934L18.7931 26.2934L20.2074 27.7076L27.7074 20.2076L26.2931 18.7934ZM20.2074 26.2934L18.2074 24.2934L16.7931 25.7076L18.7931 27.7076L20.2074 26.2934ZM17.5002 25.0005C17.3319 24.0148 17.332 24.0147 17.3321 24.0147C17.3321 24.0147 17.3322 24.0147 17.3322 24.0147C17.3322 24.0147 17.3322 24.0147 17.3321 24.0147C17.3319 24.0148 17.3315 24.0148 17.3308 24.015C17.3293 24.0152 17.3269 24.0156 17.3234 24.0162C17.3165 24.0173 17.3055 24.0191 17.2907 24.0215C17.2611 24.0263 17.216 24.0335 17.157 24.0425C17.0389 24.0604 16.8653 24.0856 16.648 24.1137C16.2127 24.1701 15.6057 24.2376 14.9209 24.2826C13.5175 24.3747 11.9132 24.3621 10.7733 24.0385L10.2272 25.9625C11.7171 26.3854 13.6128 26.3728 15.0519 26.2783C15.7883 26.2299 16.4383 26.1575 16.9046 26.0972C17.1381 26.067 17.3265 26.0397 17.4577 26.0197C17.5233 26.0098 17.5747 26.0016 17.6103 25.9958C17.6281 25.993 17.642 25.9907 17.6518 25.989C17.6567 25.9882 17.6606 25.9876 17.6634 25.9871C17.6648 25.9869 17.6659 25.9867 17.6668 25.9865C17.6672 25.9864 17.6676 25.9864 17.6679 25.9863C17.6681 25.9863 17.6682 25.9863 17.6683 25.9863C17.6685 25.9862 17.6686 25.9862 17.5002 25.0005ZM10.7733 24.0385C9.7437 23.7462 8.69783 23.082 7.68479 22.1803C6.67808 21.2844 5.75211 20.1974 4.95926 19.1306C4.16845 18.0666 3.52404 17.0416 3.07713 16.2817C2.85408 15.9024 2.68126 15.5909 2.56501 15.3759C2.50691 15.2684 2.46302 15.1852 2.43411 15.1297C2.41967 15.102 2.40897 15.0812 2.40213 15.0679C2.39871 15.0612 2.39625 15.0564 2.39477 15.0534C2.39403 15.052 2.39354 15.051 2.39329 15.0505C2.39316 15.0503 2.3931 15.0501 2.3931 15.0501C2.39309 15.0501 2.39314 15.0502 2.39314 15.0502C2.3932 15.0503 2.39327 15.0505 1.50024 15.5005C0.607213 15.9505 0.60732 15.9507 0.607443 15.9509C0.607504 15.9511 0.607643 15.9513 0.607766 15.9516C0.608013 15.9521 0.608322 15.9527 0.608694 15.9534C0.609438 15.9549 0.610431 15.9568 0.611673 15.9593C0.614156 15.9642 0.617632 15.971 0.622089 15.9797C0.631001 15.9971 0.643838 16.022 0.660499 16.054C0.693819 16.1179 0.742459 16.2101 0.805628 16.327C0.931919 16.5606 1.11655 16.8932 1.35317 17.2955C1.8256 18.0988 2.50939 19.1871 3.35405 20.3236C4.19667 21.4574 5.21343 22.6582 6.35513 23.6743C7.49048 24.6848 8.79867 25.557 10.2272 25.9625L10.7733 24.0385ZM2.50024 15.5005V9.50049H0.500244V15.5005H2.50024ZM0.821964 10.2353L7.32196 16.2353L8.67852 14.7657L2.17852 8.76568L0.821964 10.2353ZM27.7931 36.7076L41.2931 50.2076L42.7074 48.7934L29.2074 35.2934L27.7931 36.7076ZM42.0002 49.5005C41.7188 50.4601 41.7191 50.4601 41.7193 50.4602C41.7194 50.4603 41.7197 50.4603 41.7199 50.4604C41.7204 50.4605 41.7209 50.4607 41.7215 50.4609C41.7228 50.4612 41.7244 50.4617 41.7263 50.4622C41.7301 50.4633 41.7352 50.4648 41.7416 50.4666C41.7543 50.4703 41.7722 50.4753 41.795 50.4816C41.8405 50.4942 41.9055 50.5118 41.9877 50.5331C42.1521 50.5757 42.3862 50.6331 42.6726 50.6948C43.2429 50.8178 44.0318 50.9601 44.8956 51.0333C45.7535 51.106 46.7227 51.1139 47.6405 50.9472C48.5515 50.7818 49.5023 50.4276 50.2147 49.7002L48.7858 48.3008C48.4712 48.622 47.971 48.8545 47.2832 48.9794C46.6021 49.1031 45.8248 49.1049 45.0644 49.0405C44.3099 48.9765 43.609 48.8507 43.094 48.7397C42.8377 48.6845 42.6303 48.6335 42.4888 48.5969C42.4181 48.5786 42.3641 48.564 42.3288 48.5542C42.3112 48.5493 42.2983 48.5457 42.2903 48.5434C42.2863 48.5422 42.2836 48.5415 42.2821 48.541C42.2814 48.5408 42.281 48.5407 42.2809 48.5407C42.2809 48.5407 42.2809 48.5407 42.281 48.5407C42.2811 48.5407 42.2813 48.5408 42.2813 48.5408C42.2815 48.5408 42.2817 48.5409 42.0002 49.5005ZM50.2147 49.7002C50.8329 49.069 51.1817 48.2469 51.3834 47.4588C51.5872 46.6626 51.6605 45.824 51.674 45.0806C51.6876 44.3328 51.6411 43.6514 51.5917 43.1585C51.567 42.9111 51.5412 42.7088 51.5214 42.5664C51.5115 42.4952 51.503 42.4389 51.4968 42.3992C51.4937 42.3794 51.4912 42.3637 51.4894 42.3525C51.4884 42.3468 51.4877 42.3423 51.4871 42.3389C51.4868 42.3372 51.4866 42.3358 51.4864 42.3346C51.4863 42.3341 51.4862 42.3336 51.4861 42.3331C51.4861 42.3329 51.4861 42.3327 51.486 42.3326C51.486 42.3323 51.486 42.3321 50.5002 42.5005C49.5145 42.6689 49.5145 42.6687 49.5145 42.6685C49.5145 42.6685 49.5144 42.6683 49.5144 42.6683C49.5144 42.6681 49.5144 42.6681 49.5144 42.668C49.5144 42.668 49.5144 42.6683 49.5145 42.6689C49.5147 42.67 49.5151 42.6721 49.5156 42.6754C49.5167 42.6819 49.5184 42.6926 49.5207 42.7074C49.5253 42.737 49.5322 42.7827 49.5406 42.8426C49.5573 42.9626 49.5798 43.1391 49.6017 43.3577C49.6456 43.7969 49.6861 44.3964 49.6743 45.0443C49.6625 45.6965 49.5981 46.3683 49.4459 46.9628C49.2916 47.5654 49.0661 48.0146 48.7858 48.3008L50.2147 49.7002ZM51.2074 41.7934L36.7074 27.2934L35.2931 28.7076L49.7931 43.2076L51.2074 41.7934ZM35.2707 27.3165L27.7707 35.3165L29.2298 36.6844L36.7298 28.6844L35.2707 27.3165ZM9.20735 44.2076L27.2074 26.2076L25.7931 24.7934L7.79314 42.7934L9.20735 44.2076ZM12.7074 47.7076L30.7074 29.7076L29.2931 28.2934L11.2931 46.2934L12.7074 47.7076Z" fill="url(#paint0_linear_117_5409)"/>
<defs>
<linearGradient id="paint0_linear_117_5409" x1="1.50024" y1="8.56011" x2="51.591" y2="51.0051" gradientUnits="userSpaceOnUse">
<stop stop-color="#1E74EC"/>
<stop offset="1" stop-color="#002984"/>
</linearGradient>
</defs>
</svg>
