<svg width="80" height="80" viewBox="0 0 80 80" fill="none" xmlns="http://www.w3.org/2000/svg">
<path d="M25 28V16C25 15.4477 25.4477 15 26 15H54C54.5523 15 55 15.4477 55 16V64C55 64.5523 54.5523 65 54 65H26C25.4477 65 25 64.5523 25 64V51.5M25 36V40V43.5" stroke="url(#paint0_linear_117_5423)" stroke-width="2" stroke-linecap="round" stroke-linejoin="round"/>
<path d="M35.8757 40.8579C35.6635 40.6207 35.5465 40.3157 35.5465 40C35.5465 39.6843 35.6635 39.3793 35.8757 39.1421L37.5694 37.2704C37.756 37.0659 37.8719 36.8085 37.9005 36.5353C37.929 36.2621 37.8687 35.987 37.7282 35.7496L35.0817 31.2522C34.9427 31.015 34.7309 30.827 34.4767 30.715C34.2224 30.6029 33.9387 30.5726 33.6659 30.6283L31.1782 31.1222C30.8617 31.1865 30.5321 31.1347 30.2518 30.9766C29.9714 30.8186 29.7597 30.5652 29.6565 30.2643L28.8493 27.8856C28.7605 27.6275 28.5914 27.4032 28.3658 27.2446C28.1403 27.086 27.8696 27.0011 27.5922 27.0018H22.2993C22.0108 26.987 21.7252 27.0654 21.4863 27.225C21.2473 27.3846 21.0681 27.6166 20.9761 27.8856L20.2351 30.2643C20.1319 30.5652 19.9201 30.8186 19.6398 30.9766C19.3594 31.1347 19.0299 31.1865 18.7134 31.1222L16.1595 30.6283C15.9009 30.5924 15.6372 30.6325 15.4018 30.7435C15.1663 30.8545 14.9695 31.0315 14.8363 31.2522L12.1898 35.7496C12.0458 35.9844 11.981 36.2579 12.0048 36.5311C12.0286 36.8042 12.1396 37.063 12.3221 37.2704L14.0026 39.1421C14.2148 39.3793 14.3318 39.6843 14.3318 40C14.3318 40.3157 14.2148 40.6207 14.0026 40.8579L12.3221 42.7296C12.1396 42.937 12.0286 43.1958 12.0048 43.4689C11.981 43.7421 12.0458 44.0156 12.1898 44.2504L14.8363 48.7478C14.9754 48.985 15.1871 49.173 15.4413 49.285C15.6956 49.3971 15.9793 49.4274 16.2521 49.3717L18.7398 48.8778C19.0564 48.8135 19.3859 48.8653 19.6662 49.0234C19.9466 49.1814 20.1583 49.4348 20.2615 49.7357L21.0687 52.1144C21.1608 52.3834 21.34 52.6154 21.5789 52.775C21.8178 52.9346 22.1034 53.013 22.3919 52.9982H27.6849C27.9623 52.9989 28.2329 52.914 28.4585 52.7554C28.684 52.5968 28.8532 52.3725 28.9419 52.1144L29.7491 49.7357C29.8523 49.4348 30.0641 49.1814 30.3444 49.0234C30.6247 48.8653 30.9543 48.8135 31.2708 48.8778L33.7585 49.3717C34.0313 49.4274 34.3151 49.3971 34.5693 49.285C34.8235 49.173 35.0353 48.985 35.1744 48.7478L37.8208 44.2504C37.9613 44.013 38.0216 43.7379 37.9931 43.4647C37.9646 43.1915 37.8487 42.9341 37.662 42.7296L35.8757 40.8579ZM33.9041 42.5996L34.9626 43.7695L33.2689 46.6551L31.7075 46.3431C30.7545 46.1518 29.7631 46.3108 28.9216 46.79C28.08 47.2692 27.4469 48.0353 27.1423 48.9428L26.6395 50.3986H23.252L22.7757 48.9168C22.4711 48.0093 21.838 47.2432 20.9965 46.764C20.1549 46.2848 19.1635 46.1258 18.2105 46.3171L16.6491 46.6291L14.9289 43.7565L15.9875 42.5866C16.6385 41.8717 16.9984 40.9462 16.9984 39.987C16.9984 39.0278 16.6385 38.1023 15.9875 37.3874L14.9289 36.2175L16.6226 33.3579L18.1841 33.6699C19.1371 33.8612 20.1285 33.7022 20.97 33.223C21.8115 32.7438 22.4447 31.9777 22.7492 31.0702L23.252 29.6014H26.6395L27.1423 31.0832C27.4469 31.9907 28.08 32.7568 28.9216 33.236C29.7631 33.7152 30.7545 33.8742 31.7075 33.6829L33.2689 33.3709L34.9626 36.2565L33.9041 37.4264C33.2604 38.1396 32.905 39.0598 32.905 40.013C32.905 40.9662 33.2604 41.8864 33.9041 42.5996V42.5996ZM24.9458 34.8007C23.8989 34.8007 22.8756 35.1056 22.0052 35.6769C21.1348 36.2483 20.4564 37.0603 20.0557 38.0103C19.6551 38.9604 19.5503 40.0058 19.7545 41.0143C19.9588 42.0229 20.4629 42.9493 21.2031 43.6765C21.9433 44.4036 22.8864 44.8988 23.9132 45.0994C24.9399 45.3 26.0041 45.197 26.9713 44.8035C27.9384 44.41 28.7651 43.7436 29.3467 42.8886C29.9283 42.0336 30.2387 41.0283 30.2387 40C30.2387 38.6211 29.6811 37.2986 28.6884 36.3235C27.6958 35.3485 26.3495 34.8007 24.9458 34.8007V34.8007ZM24.9458 42.5996C24.4224 42.5996 23.9107 42.4472 23.4755 42.1615C23.0403 41.8759 22.7011 41.4699 22.5008 40.9948C22.3005 40.5198 22.248 39.9971 22.3502 39.4928C22.4523 38.9886 22.7043 38.5253 23.0744 38.1618C23.4446 37.7982 23.9161 37.5506 24.4295 37.4503C24.9428 37.35 25.475 37.4015 25.9585 37.5982C26.4421 37.795 26.8554 38.1282 27.1462 38.5557C27.437 38.9832 27.5922 39.4858 27.5922 40C27.5922 40.6895 27.3134 41.3507 26.8171 41.8382C26.3208 42.3258 25.6477 42.5996 24.9458 42.5996Z" fill="url(#paint1_linear_117_5423)"/>
<path d="M25 23H55" stroke="url(#paint2_linear_117_5423)" stroke-width="2" stroke-linecap="round" stroke-linejoin="round"/>
<path d="M25 55H55" stroke="url(#paint3_linear_117_5423)" stroke-width="2" stroke-linecap="round" stroke-linejoin="round"/>
<line x1="36" y1="59" x2="44" y2="59" stroke="url(#paint4_linear_117_5423)" stroke-width="2" stroke-linecap="round" stroke-linejoin="round"/>
<line x1="36" y1="27" x2="50" y2="27" stroke="url(#paint5_linear_117_5423)" stroke-width="2" stroke-linecap="round" stroke-linejoin="round"/>
<line x1="44" y1="31" x2="50" y2="31" stroke="url(#paint6_linear_117_5423)" stroke-width="2" stroke-linecap="round" stroke-linejoin="round"/>
<defs>
<linearGradient id="paint0_linear_117_5423" x1="25" y1="22.0313" x2="66.2015" y2="43.2758" gradientUnits="userSpaceOnUse">
<stop stop-color="#1E74EC"/>
<stop offset="1" stop-color="#002984"/>
</linearGradient>
<linearGradient id="paint1_linear_117_5423" x1="12" y1="30.6563" x2="38" y2="53" gradientUnits="userSpaceOnUse">
<stop stop-color="#1E74EC"/>
<stop offset="1" stop-color="#002984"/>
</linearGradient>
<linearGradient id="paint2_linear_117_5423" x1="25" y1="23.1406" x2="25.0784" y2="25.1606" gradientUnits="userSpaceOnUse">
<stop stop-color="#1E74EC"/>
<stop offset="1" stop-color="#002984"/>
</linearGradient>
<linearGradient id="paint3_linear_117_5423" x1="25" y1="55.1406" x2="25.0784" y2="57.1606" gradientUnits="userSpaceOnUse">
<stop stop-color="#1E74EC"/>
<stop offset="1" stop-color="#002984"/>
</linearGradient>
<linearGradient id="paint4_linear_117_5423" x1="35" y1="60.1406" x2="35.2323" y2="62.1366" gradientUnits="userSpaceOnUse">
<stop stop-color="#1E74EC"/>
<stop offset="1" stop-color="#002984"/>
</linearGradient>
<linearGradient id="paint5_linear_117_5423" x1="35" y1="28.1406" x2="35.1464" y2="30.153" gradientUnits="userSpaceOnUse">
<stop stop-color="#1E74EC"/>
<stop offset="1" stop-color="#002984"/>
</linearGradient>
<linearGradient id="paint6_linear_117_5423" x1="43" y1="32.1406" x2="43.2882" y2="34.1217" gradientUnits="userSpaceOnUse">
<stop stop-color="#1E74EC"/>
<stop offset="1" stop-color="#002984"/>
</linearGradient>
</defs>
</svg>
