<svg width="80" height="80" viewBox="0 0 80 80" fill="none" xmlns="http://www.w3.org/2000/svg">
<path d="M26.015 69.8857H25.0356V70.8651H26.015V69.8857ZM54.8617 69.8857V70.8651H55.7535L55.8367 69.9772L54.8617 69.8857ZM75.358 65.2585V66.2378H76.2498L76.3331 65.3499L75.358 65.2585ZM4.00037 65.2585H3.02103V66.2378H4.00037V65.2585ZM54.9562 65.2585L53.978 65.3055L54.9562 65.2585ZM31.7421 53.9356L32.009 54.8778L31.7421 53.9356ZM38.0784 17.088L39.0098 17.3907L38.0784 17.088ZM31.6363 17.2134L31.0606 18.0057L31.6363 17.2134ZM36.8039 21.0107L35.8725 20.708L36.8039 21.0107ZM36.7857 20.9546L37.3613 20.1623L36.7857 20.9546ZM34.9141 27.1202L34.3385 26.3279L34.9141 27.1202ZM34.837 27.0642L35.7684 27.3668L34.837 27.0642ZM40.1225 23.3789L40.6981 22.5866L40.1225 23.3789ZM40.0635 23.3789L40.6392 24.1712L40.0635 23.3789ZM45.349 27.0642L46.2804 26.7615L45.349 27.0642ZM45.2719 27.1202L44.6962 27.9125L45.2719 27.1202ZM43.4003 20.9546L42.8247 20.1623L43.4003 20.9546ZM43.3821 21.0107L42.4507 21.3133L43.3821 21.0107ZM48.5497 17.2134L49.1254 18.0057L48.5497 17.2134ZM42.1076 17.088L41.1762 17.3907L42.1076 17.088ZM40.1407 11.0345L41.0721 10.7319V10.7319L40.1407 11.0345ZM40.0453 11.0345L39.1139 10.7319V10.7319L40.0453 11.0345ZM26.015 70.8651H54.8617V68.9064H26.015V70.8651ZM76.3331 65.3499C76.5925 62.5827 76.5599 58.404 75.5805 54.8745C75.0907 53.1094 74.3435 51.4299 73.2087 50.177C72.048 48.8955 70.4985 48.0837 68.5259 48.0837V50.0424C69.8934 50.0424 70.9312 50.5802 71.757 51.4918C72.6086 52.4321 73.2467 53.7892 73.6932 55.3982C74.5863 58.6168 74.6296 62.5357 74.3829 65.1671L76.3331 65.3499ZM68.5259 48.0837H54.1025V50.0424H68.5259V48.0837ZM26.015 48.0837H11.5916V50.0424H26.015V48.0837ZM11.5916 48.0837C9.43544 48.0837 7.75941 48.8513 6.50498 50.1257C5.2779 51.3723 4.50526 53.0501 4.00691 54.8119C3.01449 58.3205 3.02103 62.5099 3.02103 65.2585H4.9797C4.9797 62.4543 4.98624 58.546 5.89164 55.345C6.34219 53.7521 6.99291 52.4221 7.90086 51.4997C8.78147 50.6051 9.95215 50.0424 11.5916 50.0424V48.0837ZM54.9562 66.2378H75.358V64.2791H54.9562V66.2378ZM55.8367 69.9772C55.9631 68.629 56.0187 66.9643 55.9345 65.2115L53.978 65.3055C54.0577 66.9631 54.0046 68.5352 53.8866 69.7943L55.8367 69.9772ZM55.9345 65.2115C55.8032 62.4798 55.328 59.4365 54.1795 57.0423C53.0174 54.6195 51.0731 52.711 48.0295 52.711V54.6696C50.0531 54.6696 51.4435 55.8671 52.4135 57.8894C53.3972 59.9402 53.8519 62.681 53.978 65.3055L55.9345 65.2115ZM54.1025 48.0837C52.2621 48.0837 50.7614 48.643 49.5723 49.6172C48.4001 50.5776 47.5875 51.8939 47.0172 53.3285L48.8372 54.0521C49.3292 52.8148 49.9773 51.8175 50.8136 51.1323C51.6332 50.4608 52.689 50.0424 54.1025 50.0424V48.0837ZM48.0295 52.711H47.9272V54.6696H48.0295V52.711ZM47.9272 52.711H33.6062V54.6696H47.9272V52.711ZM32.6617 53.5988C31.5807 50.647 29.5559 48.0837 26.015 48.0837V50.0424C28.3395 50.0424 29.8588 51.641 30.8225 54.2724L32.6617 53.5988ZM33.6062 52.711C32.8429 52.711 32.133 52.807 31.4753 52.9933L32.009 54.8778C32.4792 54.7447 33.0084 54.6696 33.6062 54.6696V52.711ZM31.4753 52.9933C28.9639 53.7046 27.451 55.6493 26.5454 57.8943C25.6446 60.1276 25.2875 62.7844 25.1404 65.1989L27.0954 65.318C27.2383 62.9718 27.5799 60.5657 28.3619 58.627C29.1392 56.7 30.2934 55.3637 32.009 54.8778L31.4753 52.9933ZM25.1404 65.1989C25.0354 66.9224 25.0356 68.5641 25.0356 69.8857H26.9943C26.9943 68.5591 26.9945 66.9738 27.0954 65.318L25.1404 65.1989ZM4.00037 66.2378H26.1179V64.2791H4.00037V66.2378ZM25.6721 36.7083C25.6721 41.2193 21.9804 44.891 17.4082 44.891V46.8497C23.0458 46.8497 27.6308 42.3174 27.6308 36.7083H25.6721ZM17.4082 44.891C12.836 44.891 9.14427 41.2193 9.14427 36.7083H7.1856C7.1856 42.3174 11.7706 46.8497 17.4082 46.8497V44.891ZM9.14427 36.7083C9.14427 32.1973 12.836 28.5257 17.4082 28.5257V26.567C11.7706 26.567 7.1856 31.0993 7.1856 36.7083H9.14427ZM17.4082 28.5257C21.9804 28.5257 25.6721 32.1973 25.6721 36.7083H27.6308C27.6308 31.0993 23.0458 26.567 17.4082 26.567V28.5257ZM48.7802 41.2893C48.7802 45.8003 45.0885 49.472 40.5163 49.472V51.4306C46.1539 51.4306 50.7389 46.8984 50.7389 41.2893H48.7802ZM40.5163 49.472C35.9441 49.472 32.2524 45.8003 32.2524 41.2893H30.2937C30.2937 46.8984 34.8787 51.4306 40.5163 51.4306V49.472ZM32.2524 41.2893C32.2524 36.7783 35.9441 33.1067 40.5163 33.1067V31.148C34.8787 31.148 30.2937 35.6803 30.2937 41.2893H32.2524ZM40.5163 33.1067C45.0885 33.1067 48.7802 36.7783 48.7802 41.2893H50.7389C50.7389 35.6803 46.1539 31.148 40.5163 31.148V33.1067ZM70.3478 36.7083C70.3478 41.2193 66.6561 44.891 62.0839 44.891V46.8497C67.7215 46.8497 72.3065 42.3174 72.3065 36.7083H70.3478ZM62.0839 44.891C57.5117 44.891 53.82 41.2193 53.82 36.7083H51.8613C51.8613 42.3174 56.4463 46.8497 62.0839 46.8497V44.891ZM53.82 36.7083C53.82 32.1973 57.5117 28.5257 62.0839 28.5257V26.567C56.4463 26.567 51.8613 31.0993 51.8613 36.7083H53.82ZM62.0839 28.5257C66.6561 28.5257 70.3478 32.1973 70.3478 36.7083H72.3065C72.3065 31.0993 67.7215 26.567 62.0839 26.567V28.5257ZM39.2093 11.3372L41.1762 17.3907L43.039 16.7854L41.0721 10.7319L39.2093 11.3372ZM42.1553 18.102H48.5203V16.1433H42.1553V18.102ZM47.9741 16.4211L42.8247 20.1623L43.976 21.7469L49.1254 18.0057L47.9741 16.4211ZM42.4507 21.3133L44.4176 27.3668L46.2804 26.7615L44.3135 20.708L42.4507 21.3133ZM45.8475 26.3279L40.6981 22.5866L39.5468 24.1712L44.6962 27.9125L45.8475 26.3279ZM39.4879 22.5866L34.3385 26.3279L35.4898 27.9125L40.6392 24.1712L39.4879 22.5866ZM35.7684 27.3668L37.7353 21.3133L35.8725 20.708L33.9056 26.7615L35.7684 27.3668ZM37.3613 20.1623L32.2119 16.4211L31.0606 18.0057L36.21 21.7469L37.3613 20.1623ZM31.6657 18.102H38.0308V16.1433H31.6657V18.102ZM39.0098 17.3907L40.9767 11.3372L39.1139 10.7319L37.147 16.7854L39.0098 17.3907ZM38.0308 18.102C38.4768 18.102 38.872 17.8148 39.0098 17.3907L37.147 16.7854C37.2714 16.4026 37.6282 16.1433 38.0308 16.1433V18.102ZM32.2119 16.4211C32.9402 16.9502 32.5658 18.102 31.6657 18.102V16.1433C30.6686 16.1433 30.2537 17.4194 31.0606 18.0057L32.2119 16.4211ZM37.7353 21.3133C37.8731 20.8892 37.7222 20.4245 37.3613 20.1623L36.21 21.7469C35.8843 21.5103 35.7481 21.0908 35.8725 20.708L37.7353 21.3133ZM34.3385 26.3279C35.0667 25.7988 36.0466 26.5107 35.7684 27.3668L33.9056 26.7615C33.5974 27.71 34.683 28.4987 35.4898 27.9125L34.3385 26.3279ZM40.6981 22.5866C40.3373 22.3245 39.8487 22.3245 39.4879 22.5866L40.6392 24.1712C40.3135 24.4079 39.8725 24.4079 39.5468 24.1712L40.6981 22.5866ZM44.4176 27.3668C44.1394 26.5106 45.1193 25.7988 45.8475 26.3279L44.6962 27.9125C45.503 28.4986 46.5886 27.71 46.2804 26.7615L44.4176 27.3668ZM42.8247 20.1623C42.4638 20.4245 42.3129 20.8892 42.4507 21.3133L44.3135 20.708C44.4379 21.0908 44.3017 21.5103 43.976 21.7469L42.8247 20.1623ZM48.5203 18.102C47.6201 18.102 47.2459 16.9502 47.9741 16.4211L49.1254 18.0057C49.9322 17.4195 49.5175 16.1433 48.5203 16.1433V18.102ZM41.1762 17.3907C41.314 17.8149 41.7093 18.102 42.1553 18.102V16.1433C42.5578 16.1433 42.9146 16.4025 43.039 16.7854L41.1762 17.3907ZM41.0721 10.7319C40.7639 9.78346 39.4221 9.78346 39.1139 10.7319L40.9767 11.3372C40.6986 12.1933 39.4874 12.1933 39.2093 11.3372L41.0721 10.7319Z" fill="url(#paint0_linear_581_2741)"/>
<defs>
<linearGradient id="paint0_linear_581_2741" x1="4.00037" y1="19.2807" x2="63.5102" y2="81.3696" gradientUnits="userSpaceOnUse">
<stop stop-color="#1E74EC"/>
<stop offset="1" stop-color="#002984"/>
</linearGradient>
</defs>
</svg>
