<svg width="80" height="80" viewBox="0 0 80 80" fill="none" xmlns="http://www.w3.org/2000/svg">
<path d="M6.00031 60.451V59.5065C5.66422 59.5065 5.35346 59.6851 5.18426 59.9755C5.01507 60.2659 5.01295 60.6243 5.17868 60.9167L6.00031 60.451ZM74.0003 60.451L74.8219 60.9167C74.9877 60.6243 74.9855 60.2659 74.8163 59.9755C74.6472 59.6851 74.3364 59.5065 74.0003 59.5065V60.451ZM71.0438 65.6667V66.6111C71.3839 66.6111 71.6977 66.4283 71.8654 66.1324L71.0438 65.6667ZM8.95683 65.6667L8.1352 66.1324C8.30291 66.4283 8.61674 66.6111 8.95683 66.6111V65.6667ZM9.49064 56.7255C9.49064 57.2471 9.91348 57.6699 10.4351 57.6699C10.9567 57.6699 11.3795 57.2471 11.3795 56.7255H9.49064ZM10.4351 15V14.0556C9.91348 14.0556 9.49064 14.4784 9.49064 15H10.4351ZM68.0873 15H69.0317C69.0317 14.4784 68.6089 14.0556 68.0873 14.0556V15ZM67.1428 56.7255C67.1428 57.2471 67.5657 57.6699 68.0873 57.6699C68.6089 57.6699 69.0317 57.2471 69.0317 56.7255H67.1428ZM6.00031 61.3954H74.0003V59.5065H6.00031V61.3954ZM73.1787 59.9852L70.2222 65.2009L71.8654 66.1324L74.8219 60.9167L73.1787 59.9852ZM71.0438 64.7222H8.95683V66.6111H71.0438V64.7222ZM9.77845 65.2009L6.82193 59.9852L5.17868 60.9167L8.1352 66.1324L9.77845 65.2009ZM16.3481 20.415H62.1742V18.5261H16.3481V20.415ZM62.708 20.9608V55.2353H64.5969V20.9608H62.708ZM62.1742 55.781H16.3481V57.6699H62.1742V55.781ZM15.8143 55.2353V20.9608H13.9254V55.2353H15.8143ZM16.3481 55.781C16.0605 55.781 15.8143 55.5439 15.8143 55.2353H13.9254C13.9254 56.5727 15.003 57.6699 16.3481 57.6699V55.781ZM62.708 55.2353C62.708 55.5439 62.4619 55.781 62.1742 55.781V57.6699C63.5194 57.6699 64.5969 56.5727 64.5969 55.2353H62.708ZM62.1742 20.415C62.4619 20.415 62.708 20.6522 62.708 20.9608H64.5969C64.5969 19.6233 63.5194 18.5261 62.1742 18.5261V20.415ZM16.3481 18.5261C15.003 18.5261 13.9254 19.6233 13.9254 20.9608H15.8143C15.8143 20.6522 16.0605 20.415 16.3481 20.415V18.5261ZM11.3795 56.7255V15H9.49064V56.7255H11.3795ZM10.4351 15.9444H68.0873V14.0556H10.4351V15.9444ZM67.1428 15V56.7255H69.0317V15H67.1428Z" fill="url(#paint0_linear_581_1471)"/>
<defs>
<linearGradient id="paint0_linear_581_1471" x1="6.0003" y1="22.125" x2="56.7326" y2="80.6382" gradientUnits="userSpaceOnUse">
<stop stop-color="#1E74EC"/>
<stop offset="1" stop-color="#002984"/>
</linearGradient>
</defs>
</svg>
