<svg width="115" height="56" viewBox="0 0 115 56" fill="none" xmlns="http://www.w3.org/2000/svg">
<path fill-rule="evenodd" clip-rule="evenodd" d="M56.7739 0.0998253C56.5399 0.244025 56.1689 0.293431 55.9491 0.209134C55.7293 0.124838 55.3689 0.168682 55.1481 0.306706C54.9274 0.44473 54.6078 0.569171 54.4377 0.583375C54.2677 0.597579 53.8853 0.705343 53.5876 0.822987C52.4395 1.2772 51.9566 1.44764 51.7482 1.47358C51.6292 1.48809 51.3701 1.66163 51.1723 1.85924C50.7033 2.32766 51.0653 2.88964 51.836 2.88964C52.4917 2.88964 53.1434 4.13155 52.8661 4.85285C52.6348 5.45528 54.9809 5.98915 57.5888 5.92802C58.7462 5.90084 59.2062 5.83013 58.6111 5.77054C58.016 5.71126 57.0423 5.56922 56.4472 5.45528L55.3652 5.24778L56.9109 5.03411C58.7048 4.78616 60.232 4.98841 59.9544 5.43737C59.8483 5.60874 59.9306 5.69242 60.1371 5.62387C60.8737 5.37839 60.4682 4.89268 59.3175 4.64134C58.0556 4.36591 54.8084 4.52987 53.846 4.91769C53.4204 5.08906 53.3193 5.05109 53.4862 4.78122C53.6139 4.57526 53.5607 4.21708 53.3684 3.98549C52.6896 3.16846 57.1316 2.59723 59.6403 3.17866C60.9461 3.48157 61.4413 3.82801 60.8635 4.03459C60.5705 4.13957 60.5699 4.29921 60.8608 4.76423C61.0654 5.09185 61.3557 5.35987 61.5056 5.35987C61.6556 5.35987 61.628 5.17892 61.4441 4.95784C60.9034 4.30693 61.3795 3.26357 62.3759 2.91681C63.6115 2.48637 63.426 1.61778 62.0092 1.20062C61.4154 1.02554 60.756 0.770182 60.5433 0.632776C60.3309 0.49537 60.0115 0.47252 59.8341 0.582136C59.6567 0.691752 59.3151 0.618574 59.0749 0.419412C58.8347 0.22025 58.4869 0.150775 58.302 0.265023C58.1171 0.379271 57.7935 0.329559 57.5826 0.154791C57.3607 -0.0292412 57.0203 -0.0524024 56.7739 0.0998253ZM56.0892 0.802916C56.3946 1.10799 56.5297 1.09409 56.7523 0.734673C56.9059 0.486107 57.1396 0.390693 57.2716 0.522233C57.4033 0.654081 57.3236 0.877637 57.0942 1.01937C56.8648 1.16079 56.7668 1.42171 56.8762 1.59864C56.986 1.77588 56.9328 2.00869 56.7588 2.11615C56.5844 2.2236 56.3229 1.99017 56.1773 1.59709C56.0317 1.20402 55.793 0.92766 55.6465 0.982931C55.5003 1.0382 55.3308 0.933836 55.2699 0.751348C55.1194 0.300531 55.6174 0.33172 56.0892 0.802916ZM58.9667 0.882579C58.9667 1.04376 58.817 1.22563 58.6343 1.28646C58.4516 1.34729 58.302 1.16573 58.302 0.882579C58.302 0.59943 58.4516 0.417868 58.6343 0.478698C58.817 0.539527 58.9667 0.721397 58.9667 0.882579ZM54.5923 1.19136C54.5923 1.4461 54.4362 1.65453 54.2455 1.65453C54.0198 1.65453 54.0467 1.83423 54.3227 2.16802C54.6863 2.60803 54.6807 2.65929 54.2832 2.52744C53.8516 2.38386 53.63 1.48933 53.8946 0.959774C54.0998 0.549716 54.5923 0.713369 54.5923 1.19136ZM60.466 1.38959C60.466 1.56374 60.2947 1.64897 60.0857 1.57949C59.8764 1.50971 59.4637 1.74129 59.1685 2.09392C58.7268 2.62162 58.63 2.64601 58.6213 2.23256C58.6158 1.9562 58.924 1.5199 59.3067 1.2633C60.0214 0.78408 60.466 0.832557 60.466 1.38959ZM58.1007 1.81879C58.0052 2.06798 57.8024 2.27208 57.6506 2.27208C57.3335 2.27208 57.2775 1.54553 57.5721 1.25126C57.902 0.921794 58.2869 1.33494 58.1007 1.81879ZM53.3557 1.65453C53.3557 1.82435 53.1471 1.9633 52.892 1.9633C52.637 1.9633 52.4283 1.82435 52.4283 1.65453C52.4283 1.4847 52.637 1.34575 52.892 1.34575C53.1471 1.34575 53.3557 1.4847 53.3557 1.65453ZM55.7568 2.02444C55.6026 2.4873 55.0665 2.35453 54.9562 1.82621C54.8875 1.49612 55.0115 1.40719 55.3559 1.53935C55.6304 1.64464 55.8109 1.86295 55.7568 2.02444ZM62.3981 1.84473C63.06 2.07786 63.1129 2.58086 62.4754 2.58086C62.2204 2.58086 62.0117 2.44191 62.0117 2.27208C62.0117 2.10225 61.7418 1.9633 61.4116 1.9633C61.0815 1.9633 60.7257 2.10225 60.6206 2.27208C60.3878 2.64817 59.8477 2.68121 59.8477 2.31932C59.8477 1.96948 61.1578 1.35532 61.548 1.52206C61.718 1.59462 62.1007 1.73975 62.3981 1.84473ZM52.1192 2.27208C52.1192 2.44191 51.9884 2.58086 51.8283 2.58086C51.6682 2.58086 51.4514 2.44191 51.3463 2.27208C51.2412 2.10225 51.3723 1.9633 51.6372 1.9633C51.9022 1.9633 52.1192 2.10225 52.1192 2.27208ZM53.2139 2.60155C53.5465 3.13913 53.1678 3.25307 52.7436 2.74266C52.4997 2.44932 52.4762 2.27208 52.6815 2.27208C52.862 2.27208 53.1019 2.4203 53.2139 2.60155ZM61.7025 2.54782C61.7025 2.69943 61.4939 2.90353 61.2388 3.00142C60.7677 3.18205 60.6057 2.8529 60.9813 2.47804C61.2766 2.18285 61.7025 2.22422 61.7025 2.54782ZM58.9203 3.81597C58.9203 3.9858 59.0677 4.12475 59.2477 4.12475C59.4276 4.12475 59.4891 3.9858 59.384 3.81597C59.2789 3.64615 59.1317 3.5072 59.0566 3.5072C58.9815 3.5072 58.9203 3.64615 58.9203 3.81597ZM52.9297 6.22537C52.8311 6.3847 52.3337 6.59838 51.8246 6.70027C51.1751 6.82996 50.8415 7.11434 50.7061 7.65378C50.5998 8.0765 50.3147 8.5866 50.0724 8.78731C49.8105 9.00438 49.7113 9.40115 49.8272 9.76644C50.0071 10.3327 49.9178 10.3658 48.675 10.1919C46.9346 9.94831 46.0004 10.6335 46.0872 12.09C46.1586 13.2899 46.2869 13.4378 47.3071 13.4968C47.7433 13.5218 48.0957 13.612 48.0902 13.6969C48.0626 14.1387 47.1918 14.932 46.7343 14.932C46.4452 14.932 46.2931 15.0682 46.3961 15.2343C46.499 15.4007 46.4427 15.7994 46.2705 16.1202C46.0987 16.441 46.0576 16.8038 46.179 16.9264C46.3005 17.049 46.4001 17.4495 46.4001 17.816C46.4001 18.185 46.5729 18.4484 46.7865 18.4057C46.9992 18.3634 47.1729 18.537 47.1729 18.7917C47.1729 19.0465 47.3986 19.2549 47.6744 19.2549C48.1078 19.2549 48.1183 19.1814 47.7516 18.7145C47.5186 18.4172 47.2335 18.1028 47.1188 18.0158C46.6446 17.656 46.7003 15.1034 47.1757 15.397C47.3473 15.5029 47.73 15.1648 48.0259 14.6454C48.322 14.1261 48.7007 13.7457 48.868 13.8003C49.2318 13.9189 49.9552 12.6155 49.9552 11.842C49.9552 10.5165 47.7724 11.0778 47.176 12.5569C46.9235 13.1828 46.8196 13.0679 46.7401 12.0758C46.7231 11.8637 46.5967 11.6071 46.4588 11.5058C45.9212 11.1106 47.6552 10.4007 48.8173 10.5399C50.3379 10.7224 50.7086 11.5518 50.0816 13.3693C49.8359 14.0816 49.7153 14.794 49.8133 14.9524C49.9113 15.1111 49.639 15.2408 49.2077 15.2408C48.3195 15.2408 47.3062 16.4987 47.5931 17.2454C47.8549 17.9271 48.6778 17.8154 49.8241 16.9421C50.379 16.5194 50.891 16.2761 50.9618 16.4018C51.0326 16.5274 51.0489 16.4589 50.9982 16.2492C50.8703 15.7222 51.8839 14.01 52.3254 14.0075C52.5235 14.0066 52.7433 13.8334 52.8138 13.6225C52.9047 13.3498 53.1035 13.4008 53.5023 13.7991C53.8547 14.1511 54.3153 14.2959 54.7425 14.1888C55.2406 14.0637 55.5102 14.202 55.7519 14.7069C56.4472 16.1569 56.4558 16.4759 55.8011 16.4759C55.4561 16.4759 55.2601 16.3369 55.3652 16.1671C55.4703 15.9973 55.4171 15.8583 55.2471 15.8583C54.583 15.8583 54.5905 16.495 55.2573 16.7414C55.9225 16.9872 55.9 17.0221 54.8508 17.3679C53.6426 17.7663 52.573 18.7395 52.8506 19.1882C52.9464 19.3426 52.6274 19.8493 52.1421 20.3137C51.6236 20.8096 51.1791 21.0279 51.0644 20.8426C50.9315 20.628 50.5719 20.6302 49.9419 20.8497C48.2886 21.4253 47.9127 23.269 49.4488 23.269C50.3045 23.269 50.8035 24.1265 50.1039 24.3948C49.4615 24.6409 48.0357 24.2407 48.2605 23.8776C48.3625 23.7127 48.3149 23.5778 48.1548 23.5778C47.6595 23.5778 47.5022 21.9147 47.9501 21.4157C48.543 20.7552 49.0673 19.2598 48.8367 18.8871C48.5585 18.4376 48.0775 19.2901 48.2664 19.8978C48.3498 20.1664 48.1381 20.6398 47.7955 20.9492C45.9144 22.6496 48.6296 26.1882 50.5432 24.5304C51.3034 23.8717 50.8631 22.9602 49.7852 22.9602C49.344 22.9602 49.0278 22.7808 49.0278 22.5301C49.0278 22.0018 49.7858 21.6794 50.4393 21.9301C50.741 22.0456 51.3405 21.7223 52.0314 21.0711C52.641 20.4968 53.0621 20.2479 52.9672 20.5181C52.7387 21.1687 53.1499 21.7903 53.8627 21.8724C55.1948 22.0256 56.4472 22.4412 56.4472 22.7305C56.4472 22.913 56.8932 22.9686 57.5291 22.8657C58.5008 22.7083 58.6111 22.762 58.6111 23.395C58.6111 23.7825 58.8544 24.3121 59.1521 24.5714C59.7423 25.0862 62.5477 25.5043 62.7895 25.1136C62.8717 24.9806 63.4767 24.9438 64.1336 25.0318C65.1362 25.1661 65.4095 25.0757 65.8339 24.4705C66.4646 23.5713 66.4707 23.135 65.8611 22.5264C65.4818 22.1475 65.4552 21.9129 65.7328 21.3947C65.9254 21.0353 65.999 20.4069 65.8964 19.9981C65.7075 19.2462 66.1273 18.9705 66.5125 19.593C66.6309 19.7848 66.9579 19.4037 67.2674 18.7136C67.5676 18.0439 68.0727 17.3905 68.3902 17.2617C68.9432 17.0369 68.9417 17.0172 68.3491 16.7887C67.988 16.6497 67.3128 16.7211 66.7261 16.9607C65.6076 17.417 65.6908 17.5551 65.5835 15.0685L65.5294 13.8155L66.8448 14.2879C68.5111 14.8863 68.8004 14.6013 67.7691 13.3776C67.323 12.8477 66.9579 12.1193 66.9579 11.7587C66.9579 11.2615 66.8714 11.1896 66.5993 11.4613C66.3276 11.7327 66.4408 12.1206 67.0677 13.067C67.5221 13.7531 67.7877 14.3089 67.6578 14.3021C67.528 14.2953 66.6565 13.8787 65.7214 13.3761C64.7862 12.8731 63.8474 12.4618 63.6347 12.4618C63.4223 12.4618 63.2482 12.1873 63.2482 11.8519C63.2482 11.3292 63.3586 11.2838 64.0192 11.5348C64.4431 11.6957 65.1386 12.0557 65.5649 12.3345C66.0373 12.6436 66.3397 12.7072 66.3397 12.4973C66.3397 12.308 66.225 12.153 66.0846 12.153C65.9443 12.153 65.8401 11.6321 65.8528 10.9951C65.8688 10.1858 66.0852 9.66763 66.5715 9.27425C67.9973 8.12065 66.9892 5.97279 65.0258 5.98205C64.4731 5.98483 63.8171 6.11575 63.5679 6.27323C63.2742 6.45881 62.957 6.42978 62.6674 6.1914C62.3258 5.9098 62.1913 5.90887 62.0976 6.18677C62.0204 6.41558 61.594 6.48845 60.9461 6.38347C59.2489 6.10834 57.8578 8.05612 59.047 9.04205C59.409 9.34218 59.269 9.60279 58.2195 10.5807C57.3876 11.3557 56.7575 11.7059 56.3748 11.6061C56.0555 11.5225 55.8635 11.2727 55.9488 11.051C56.0341 10.8293 55.8681 10.6011 55.58 10.5439C55.2214 10.4729 55.1701 10.3686 55.4174 10.2129C55.6165 10.0882 55.9899 10.1966 56.2481 10.4541C56.5059 10.7119 56.7962 10.7944 56.8929 10.6378C56.99 10.4813 56.9072 10.2991 56.7087 10.233C56.4515 10.1475 56.4394 9.95047 56.667 9.54443C56.9273 9.07972 56.7986 8.81231 55.9599 8.0768C55.3531 7.54447 55.0041 6.99546 55.1055 6.73177C55.2199 6.43379 55.0693 6.2862 54.6507 6.2862C54.3064 6.2862 53.8185 6.20715 53.5669 6.11082C53.3152 6.01417 53.0284 6.06573 52.9297 6.22537ZM54.4526 7.37001C54.3982 7.86591 54.5033 8.03512 54.7957 7.92303C55.077 7.81527 55.1568 7.91964 55.035 8.23644C54.899 8.5903 55.0075 8.67089 55.4604 8.55263C55.7949 8.46525 56.1541 8.53225 56.2586 8.70177C56.5538 9.17853 56.1349 9.97116 55.6799 9.7967C55.0956 9.57253 54.7809 10.2463 55.2217 10.7771C55.635 11.2742 55.2965 11.3693 54.6254 10.9447C54.3558 10.7743 54.2631 10.4007 54.3781 9.94584C54.5438 9.29 54.5221 9.27209 54.1564 9.75996C53.6408 10.4479 53.1211 10.4522 52.9897 9.76984C52.901 9.31037 52.7943 9.33909 52.194 9.98228C51.628 10.5893 51.5009 10.6295 51.5009 10.2012C51.5009 9.9128 51.776 9.4413 52.1127 9.15351C52.5251 8.80089 52.611 8.56035 52.3767 8.41584C51.9686 8.16388 52.2571 7.21253 52.7412 7.21253C52.9242 7.21253 53.0512 7.38638 53.0234 7.59851C52.9276 8.33587 53.0485 8.75643 53.3557 8.75643C53.8488 8.75643 53.7131 7.21161 53.203 7.01615C52.4895 6.74257 52.939 6.35135 53.7814 6.51222C54.3496 6.62061 54.5122 6.82841 54.4526 7.37001ZM66.3397 6.90376C67.1372 7.7004 67.1286 8.64341 66.3199 9.0757C65.8444 9.32983 65.5668 9.32149 65.2302 9.04235C64.8354 8.71505 64.8406 8.59895 65.2725 8.12251C65.7288 7.61889 65.7164 7.56145 65.1105 7.36939C64.7077 7.24156 64.1519 7.3592 63.6699 7.67477C62.5536 8.40534 62.3075 7.9218 63.3428 7.0319C64.3979 6.12471 65.5121 6.07716 66.3397 6.90376ZM61.7455 7.18598C62.1471 7.51112 62.3777 7.87487 62.2584 7.99467C62.1387 8.11448 61.8089 7.98047 61.5251 7.69701C61.2413 7.41355 60.7943 7.22334 60.5312 7.27429C59.8693 7.40274 59.6792 8.13887 60.3083 8.13887C60.6295 8.13887 60.7816 8.34019 60.7164 8.67923C60.5754 9.40949 59.8632 9.36194 59.3484 8.58783C58.9902 8.04871 58.9988 7.85572 59.4056 7.27552C59.9924 6.43843 60.785 6.40817 61.7455 7.18598ZM62.63 6.90376C62.63 7.07358 62.4909 7.21253 62.3208 7.21253C62.1508 7.21253 62.0117 7.07358 62.0117 6.90376C62.0117 6.73393 62.1508 6.59498 62.3208 6.59498C62.4909 6.59498 62.63 6.73393 62.63 6.90376ZM51.6536 7.52317C51.3451 7.86406 51.0254 8.07557 50.9435 7.99374C50.7358 7.78624 51.5068 6.90376 51.8957 6.90376C52.0713 6.90376 51.9625 7.18258 51.6536 7.52317ZM61.2515 7.85078C61.5841 8.38836 61.2054 8.5023 60.7813 7.99189C60.5374 7.69855 60.5139 7.52131 60.7192 7.52131C60.8997 7.52131 61.1396 7.66953 61.2515 7.85078ZM64.7967 7.98108C64.5865 8.23397 64.2891 8.36335 64.1355 8.26856C63.741 8.02493 64.1185 7.52131 64.6953 7.52131C65.0886 7.52131 65.1074 7.60715 64.7967 7.98108ZM51.8005 8.37045C51.7841 8.75519 50.2378 9.75934 50.0115 9.53208C49.8955 9.41598 50.1289 9.05502 50.5305 8.72987C51.2857 8.11818 51.8172 7.96781 51.8005 8.37045ZM64.5976 9.08775C65.1921 9.55462 65.4122 10.011 65.4122 10.7761C65.4122 11.5814 65.3047 11.7837 64.9485 11.6472C64.6935 11.5493 64.4848 11.2143 64.4848 10.9024C64.4848 10.3105 63.3994 9.37398 62.7137 9.37398C62.4955 9.37398 62.0145 9.72136 61.6447 10.1459C61.0447 10.8354 60.1568 11.1948 60.1568 10.748C60.1568 10.3244 61.1112 8.79626 61.4642 8.65422C62.3774 8.28739 63.8359 8.48902 64.5976 9.08775ZM51.1324 10.7635C51.1098 11.3579 50.9911 11.8442 50.8687 11.8442C50.5518 11.8442 50.2745 10.6326 50.473 10.1163C50.7862 9.30142 51.1729 9.68153 51.1324 10.7635ZM63.7021 15.196C64.193 15.2896 64.2412 15.2284 63.9515 14.8801C63.4919 14.3265 63.814 13.8318 64.794 13.587C65.219 13.4807 65.3872 13.4755 65.1674 13.5752C64.8688 13.7111 64.8555 13.8621 65.1145 14.1739C65.351 14.4586 65.3637 14.7649 65.1538 15.1395C64.9516 15.5001 64.9507 15.8824 65.1507 16.256C65.6744 17.2336 64.2622 18.2912 63.6829 17.3553C63.562 17.1598 63.7277 16.8013 64.0511 16.5593C64.6094 16.1409 64.6001 16.1236 63.8665 16.2199C63.1051 16.32 63.0924 16.3684 63.0053 19.5235C62.9363 22.0166 63.0235 22.8883 63.3988 23.4604C63.9321 24.2738 65.1031 24.4603 65.1031 23.7322C65.1031 23.4774 64.8944 23.269 64.6394 23.269C64.3843 23.269 64.1757 23.051 64.1757 22.7842C64.1757 21.978 65.5486 22.3686 65.6679 23.2088C65.8917 24.7854 64.0613 25.3956 63.0312 24.0876L62.4599 23.3623L61.9122 24.0876C61.611 24.4865 61.0691 24.8129 60.7077 24.8129C59.8171 24.8129 58.9203 23.9459 58.9203 23.085C58.9203 22.2235 58.4192 21.8613 57.8639 22.3214C57.4568 22.6589 56.4472 22.4745 56.4472 22.0626C56.4472 21.6183 57.2151 21.1076 57.8825 21.1076C58.264 21.1076 58.7836 21.4037 59.0378 21.7656C59.2968 22.1355 59.6944 22.3489 59.9448 22.2531C60.1899 22.159 60.5359 22.2272 60.7133 22.4044C61.1418 22.8324 60.8329 23.5778 60.2267 23.5778C59.9618 23.5778 59.8415 23.6744 59.9596 23.7927C60.4162 24.2485 61.1065 24.1135 61.5495 23.4821C61.9236 22.9485 62.0117 21.6041 62.0117 16.433C62.0117 11.5963 62.1057 10.0113 62.3981 9.91311C62.68 9.81832 62.8263 10.5004 62.9391 12.4315C63.0748 14.7551 63.1685 15.0944 63.7021 15.196ZM53.8884 11.0621C54.5852 11.2365 54.6495 11.3245 54.2451 11.5506C53.9536 11.7136 53.3242 11.7077 52.7038 11.5364C51.7733 11.2791 51.7195 11.2949 52.2246 11.6772C52.6107 11.9693 52.7282 12.3136 52.59 12.748C52.4781 13.1 52.2917 13.3986 52.1758 13.4119C52.0595 13.4248 51.7213 13.482 51.4236 13.5388C50.6495 13.6867 50.7432 12.9079 51.695 11.2856C52.3362 10.1929 52.5634 10.0008 52.773 10.375C52.9192 10.6357 53.421 10.9447 53.8884 11.0621ZM59.8455 10.7045C59.8443 10.9068 59.3574 11.403 58.7635 11.8068C58.1697 12.2107 57.6837 12.6625 57.6837 12.8104C57.6837 12.9583 57.5446 13.0793 57.3746 13.0793C56.7569 13.0793 57.0902 12.308 58.1978 11.1754C59.2786 10.0697 59.8502 9.90632 59.8455 10.7045ZM64.121 10.7107C64.1905 11.0689 64.0733 11.168 63.7345 11.0383C63.1629 10.8191 63.0662 9.87945 63.6347 10.0687C63.8474 10.1391 64.0659 10.4282 64.121 10.7107ZM49.5103 12.4022C49.3051 13.0484 48.4095 13.5916 48.4095 13.0697C48.4095 12.9052 48.5486 12.7705 48.7186 12.7705C48.8887 12.7705 49.0278 12.3954 49.0278 11.9368C49.0278 11.3307 49.1205 11.1958 49.3675 11.4425C49.5546 11.6293 49.6189 12.061 49.5103 12.4022ZM61.7025 11.8442C61.7025 12.241 61.4963 12.4618 61.1263 12.4618C60.5473 12.4618 58.9203 13.859 58.9203 14.3564C58.9203 14.5031 58.7067 14.6232 58.4458 14.6232C58.0497 14.6232 58.0324 14.508 58.3419 13.9285C58.6693 13.3146 58.6563 13.2797 58.2312 13.6299C57.9666 13.8479 57.582 14.4318 57.3764 14.9277C57.0491 15.7172 57.0883 15.9494 57.6936 16.7986C58.2139 17.5282 58.4479 17.6659 58.6402 17.355C58.9796 16.8069 59.8239 17.8793 59.8378 18.876C59.8474 19.5525 59.8202 19.56 59.0804 19.0758C58.6581 18.7994 58.0164 18.0942 57.654 17.5084C57.2914 16.9227 56.926 16.5123 56.8419 16.5963C56.6169 16.8211 57.8813 18.5015 58.8903 19.3188C59.3843 19.719 59.8465 20.4634 59.9528 21.0304C60.1806 22.2426 60.1024 22.2602 59.0715 21.2305C58.524 20.6836 58.0596 20.4814 57.6173 20.5968C56.6632 20.846 55.5129 19.8669 55.9488 19.1768C56.2036 18.7732 56.1606 18.5274 55.7652 18.1325C55.2817 17.6499 55.2984 17.5764 56.0209 17.0088C56.457 16.6661 56.7204 16.21 56.6252 15.9621C56.4302 15.4548 57.5805 13.5351 58.6513 12.5813C60.2675 11.1414 61.7025 10.795 61.7025 11.8442ZM48.7186 11.9242C48.7186 12.1382 48.4404 12.4868 48.1004 12.6989C47.4051 13.1327 47.3362 13.0021 47.802 12.1326C48.1625 11.4598 48.7186 11.3335 48.7186 11.9242ZM54.5923 12.9249C54.5923 13.5193 54.4532 14.0057 54.2832 14.0057C53.9403 14.0057 53.8544 12.3753 54.1802 12.0502C54.536 11.6948 54.5923 11.8143 54.5923 12.9249ZM55.7754 12.9052C55.8468 13.5113 55.7556 13.7241 55.4663 13.6277C55.2406 13.5527 55.0495 13.1185 55.0415 12.6628C55.0226 11.5833 55.644 11.7883 55.7754 12.9052ZM56.8422 12.978C57.02 13.9075 56.8336 14.6232 56.4141 14.6232C56.2623 14.6232 56.138 14.4148 56.138 14.16C56.138 13.9053 56.305 13.6969 56.509 13.6969C56.7974 13.6969 56.7974 13.6144 56.509 13.3263C56.0842 12.9021 55.998 11.7213 56.4104 11.9757C56.56 12.0684 56.7544 12.5192 56.8422 12.978ZM53.6649 12.4618C53.6649 12.6316 53.5258 12.7705 53.3557 12.7705C53.1857 12.7705 53.0466 12.6316 53.0466 12.4618C53.0466 12.2919 53.1857 12.153 53.3557 12.153C53.5258 12.153 53.6649 12.2919 53.6649 12.4618ZM61.3934 16.7461C61.3934 18.9325 61.4738 21.1906 61.5718 21.7637L61.7502 22.8058L60.9535 21.9394C60.1837 21.1023 60.1568 20.9396 60.1568 17.1021C60.1568 13.2297 60.2357 12.8922 61.1616 12.7949C61.2892 12.7817 61.3934 14.5596 61.3934 16.7461ZM64.1757 13.0793C64.1757 13.2492 64.0449 13.3881 63.8848 13.3881C63.7246 13.3881 63.5079 13.2492 63.4028 13.0793C63.2977 12.9095 63.4288 12.7705 63.6937 12.7705C63.9587 12.7705 64.1757 12.9095 64.1757 13.0793ZM51.5009 14.3589C51.5009 14.4713 50.8999 15.2266 50.1651 16.0371C49.1718 17.133 48.6874 17.4563 48.275 17.2982C47.7727 17.1058 47.764 17.0212 48.182 16.395C48.4435 16.0031 48.961 15.7039 49.3765 15.7039C49.9997 15.7039 50.124 15.5313 50.2053 14.5547C50.2925 13.5023 50.3512 13.4369 50.9009 13.7799C51.2307 13.9859 51.5009 14.2462 51.5009 14.3589ZM52.7879 14.2832C52.2979 14.5859 52.7424 15.8071 53.6018 16.5203C54.1818 17.0014 54.2115 16.9912 54.1713 16.3283C54.1478 15.9432 53.9728 15.6882 53.7821 15.7611C53.3094 15.9423 52.9375 14.8814 53.3783 14.6093C53.5721 14.4895 53.6049 14.3138 53.4513 14.219C53.2976 14.1242 52.999 14.1529 52.7879 14.2832ZM59.601 14.8934C59.4239 15.0027 59.2331 15.296 59.1769 15.5452C59.1209 15.7941 58.894 16.1918 58.6727 16.429C58.3308 16.7958 58.2055 16.7739 57.833 16.282C57.2556 15.5193 57.4104 15.1102 58.3261 14.9795C58.7379 14.9206 59.2034 14.6464 59.3608 14.3697C59.5812 13.9825 59.6786 13.9621 59.785 14.2808C59.861 14.5084 59.7781 14.7841 59.601 14.8934ZM51.8818 16.4759C51.8818 17.0703 51.9454 17.3136 52.023 17.0162C52.1009 16.7189 52.1009 16.2329 52.023 15.9355C51.9454 15.6382 51.8818 15.8815 51.8818 16.4759ZM59.8477 16.5376C59.8477 17.2559 59.755 17.4331 59.508 17.1864C59.3209 16.9996 59.2606 16.5549 59.3741 16.1983C59.6693 15.2692 59.8477 15.397 59.8477 16.5376ZM52.4283 16.4759C52.4283 16.6457 52.5758 16.7847 52.7557 16.7847C52.9356 16.7847 52.9971 16.6457 52.892 16.4759C52.7869 16.3061 52.6398 16.1671 52.5647 16.1671C52.4895 16.1671 52.4283 16.3061 52.4283 16.4759ZM67.2049 18.0377C66.8207 18.557 66.4553 18.8291 66.3928 18.6423C66.3109 18.3971 66.1669 18.3962 65.8735 18.6395C65.5795 18.8831 65.4082 18.881 65.2543 18.6318C65.0042 18.2276 64.9903 18.243 66.1851 17.6097C67.6495 16.8334 67.9905 16.9767 67.2049 18.0377ZM50.8826 17.711C50.8826 17.8808 51.0217 18.0198 51.1918 18.0198C51.3618 18.0198 51.5009 17.8808 51.5009 17.711C51.5009 17.5412 51.3618 17.4022 51.1918 17.4022C51.0217 17.4022 50.8826 17.5412 50.8826 17.711ZM51.9646 18.3286C52.0697 18.4984 52.2169 18.6373 52.292 18.6373C52.3671 18.6373 52.4283 18.4984 52.4283 18.3286C52.4283 18.1587 52.2809 18.0198 52.1009 18.0198C51.921 18.0198 51.8595 18.1587 51.9646 18.3286ZM55.4159 18.5036C55.5182 18.7698 55.4443 19.145 55.2517 19.3373C54.7469 19.8416 54.8174 20.0874 55.5197 20.2708C56.1853 20.4446 56.3037 20.9853 55.8369 21.7226C55.6047 22.0895 55.4672 22.1049 55.1617 21.7998C54.9506 21.5889 54.4418 21.4163 54.0306 21.4163C53.4262 21.4163 53.3199 21.2984 53.4741 20.7988C53.5793 20.4591 53.7505 19.9033 53.8556 19.5637C53.9753 19.1758 53.9035 18.9461 53.663 18.9461C53.3591 18.9461 53.3598 18.8504 53.6649 18.4829C54.1682 17.8774 55.18 17.8895 55.4159 18.5036ZM64.811 18.6543C65.6762 19.5186 65.5637 21.8162 64.6471 21.99C64.3114 22.0537 63.8634 22.3328 63.6523 22.6104C63.3051 23.0658 63.2671 23.0668 63.2581 22.6221C63.2526 22.3513 63.5265 21.878 63.8665 21.5707C64.5856 20.9207 64.7024 19.5637 64.0393 19.5637C63.4668 19.5637 63.1456 19.0412 63.3657 18.4681C63.6041 17.8481 64.0631 17.9074 64.811 18.6543ZM51.3463 18.9461C51.4514 19.1159 51.5986 19.2549 51.6737 19.2549C51.7488 19.2549 51.81 19.1159 51.81 18.9461C51.81 18.7763 51.6626 18.6373 51.4827 18.6373C51.3027 18.6373 51.2412 18.7763 51.3463 18.9461ZM50.5735 19.2549C50.5735 19.4247 50.7209 19.5637 50.9009 19.5637C51.0808 19.5637 51.1423 19.4247 51.0372 19.2549C50.9321 19.0851 50.7849 18.9461 50.7098 18.9461C50.6347 18.9461 50.5735 19.0851 50.5735 19.2549ZM64.1757 20.1559C64.1757 20.6904 63.8004 21.4163 63.5243 21.4163C63.204 21.4163 63.1499 20.3825 63.4544 20.0784C63.7528 19.7801 64.1757 19.8258 64.1757 20.1559ZM64.3302 23.5778C64.4354 23.7476 64.3822 23.8866 64.2122 23.8866C64.0421 23.8866 63.8171 23.7476 63.712 23.5778C63.6069 23.408 63.66 23.269 63.8301 23.269C64.0001 23.269 64.2251 23.408 64.3302 23.5778ZM48.3767 32.3008C47.973 33.3624 47.5949 34.3347 47.5368 34.4622C47.4784 34.5897 49.3202 34.6938 51.6298 34.6938C53.9391 34.6938 55.8289 34.7994 55.8289 34.9282C55.8289 35.0569 54.4949 37.8708 52.8642 41.1809C51.2338 44.491 49.4776 48.1025 48.9613 49.2064C48.445 50.3103 47.4821 52.2905 46.8214 53.6065L45.6204 55.9995H53.319H61.0175L61.4525 54.224L61.8871 52.4486L64.1905 52.4124L66.4942 52.3766L66.9879 50.5598L67.4816 48.7432L69.4611 48.8528C70.5498 48.9131 71.4943 49.0131 71.5598 49.0752C71.6257 49.1369 71.8445 49.9215 72.0461 50.8182L72.413 52.4486L74.9409 52.5381C76.3311 52.5875 77.4687 52.544 77.4687 52.4415C77.4687 52.238 75.8454 46.0908 74.3721 40.715C73.8601 38.8469 73.2993 36.6931 73.1262 35.9289C72.9531 35.1647 72.7117 34.3822 72.5899 34.1902C72.4678 33.9981 71.0949 33.7415 69.5393 33.6196L66.7103 33.3979L66.1752 35.2039C65.8809 36.1969 65.5359 37.4265 65.4088 37.936C65.2818 38.4455 64.4836 41.3634 63.6347 44.4203C62.7861 47.4772 62.0015 50.3606 61.8911 50.8275L61.6908 51.6766H57.8068C55.6703 51.6766 53.9737 51.5726 54.0362 51.445C54.0986 51.3175 54.6498 50.1713 55.2613 48.8976C55.8731 47.6239 58.1289 42.9965 60.2746 38.6144C62.4201 34.2322 64.1757 30.5846 64.1757 30.5089C64.1757 30.433 60.7859 30.3709 56.6432 30.3709H49.1106L48.3767 32.3008ZM111.323 33.5109C110.409 34.2291 110.318 35.3178 111.112 36.0354C111.872 36.7225 112.886 36.6799 113.638 35.9289C114.375 35.1931 114.411 34.7426 113.802 33.8746C113.144 32.9369 112.226 32.8019 111.323 33.5109ZM8.37576 33.8882C2.73735 35.659 -0.537691 42.3308 1.28284 48.3372C1.97655 50.6261 3.9365 52.9191 6.1617 54.0452C8.39029 55.1732 11.4604 55.1794 13.8033 54.0607C14.7289 53.6188 15.6947 53.0754 15.9497 52.8527C16.9742 51.9598 18.7317 49.7986 18.728 49.437C18.7243 49.0863 14.749 46.2208 14.6158 46.4731C14.5842 46.533 14.2804 47.1332 13.9403 47.8073C13.241 49.1934 11.5939 50.4415 10.4634 50.4415C9.13285 50.4415 7.73306 49.543 6.95805 48.1917C6.33976 47.1138 6.21178 46.4666 6.21178 44.4203C6.21178 42.3611 6.33822 41.7293 6.97288 40.6227C8.91058 37.2425 12.2852 37.2885 14.2708 40.7221C14.574 41.2464 14.7654 41.1578 16.5893 39.6485C17.6828 38.7437 18.6176 37.9026 18.6664 37.7797C18.7156 37.6568 17.9774 36.846 17.0261 35.9774C14.4835 33.6563 11.4483 32.9233 8.37576 33.8882ZM40.0488 33.5745C39.9715 33.6511 39.9777 36.0883 40.0627 38.9905C40.1477 41.8927 40.1372 44.2669 40.0392 44.2666C39.9412 44.2662 38.7201 41.9038 37.3253 39.0167L34.7897 33.7675L32.8665 33.7718C31.8086 33.774 30.6302 33.8598 30.2475 33.962L29.5519 34.1482V43.5659V52.9837L30.2475 52.7975C30.6302 52.6953 31.7641 52.6094 32.7673 52.6073L34.5918 52.6029L34.4169 47.1993C34.3207 44.2273 34.3346 41.7976 34.4475 41.7997C34.5603 41.8019 35.8559 44.1986 37.3262 47.1261L39.9996 52.4486L41.5212 52.4804C42.3581 52.498 43.4874 52.447 44.0305 52.3677L45.0179 52.2228L44.936 42.9178L44.8544 33.6131L42.5219 33.5242C41.239 33.4751 40.1261 33.4976 40.0488 33.5745ZM113.462 33.9438C114.065 34.5468 114.065 34.6966 113.466 35.5513C112.814 36.4816 111.561 36.4566 111.127 35.5047C110.415 33.9456 112.241 32.725 113.462 33.9438ZM111.758 33.8221C111.461 35.0054 111.821 36.1624 112.198 35.2342C112.316 34.9433 112.439 34.9621 112.699 35.3114C112.974 35.6822 113.025 35.5902 112.954 34.851C112.897 34.2615 112.67 33.8901 112.324 33.8246C112.027 33.7684 111.772 33.7672 111.758 33.8221ZM21.6976 34.3041L20.4894 34.4283L20.6929 41.4039C20.8045 45.2407 20.896 49.4688 20.896 50.8003V53.2205L22.2098 53.2171C22.9326 53.2153 24.0455 53.1276 24.6829 53.0223L25.8422 52.8308V43.4535V34.0762L24.3738 34.1281C23.566 34.1568 22.3619 34.2359 21.6976 34.3041ZM79.3236 43.1852C79.3236 48.1951 79.2886 52.3982 79.2463 52.5258C79.2039 52.6533 80.2439 52.7978 81.5577 52.8475L83.9465 52.9374L84.0309 47.4439L84.1153 41.9501L84.7781 43.3396C90.1002 54.4948 89.3407 53.5172 92.6939 53.525L94.4715 53.5293V44.1115V34.6938L93.6213 34.691C93.1539 34.6898 92.02 34.5984 91.1021 34.4882L89.4331 34.2881L89.656 39.8174C89.7868 43.0629 89.7648 45.2191 89.6028 45.0379C89.4513 44.8681 88.2349 42.3324 86.8997 39.4027L84.4723 34.0762H81.8981H79.3236V43.1852ZM112.711 34.385C112.711 34.5549 112.572 34.6938 112.402 34.6938C112.232 34.6938 112.092 34.5549 112.092 34.385C112.092 34.2152 112.232 34.0762 112.402 34.0762C112.572 34.0762 112.711 34.2152 112.711 34.385ZM102.045 35.3654C99.2279 36.4341 97.37 38.5545 96.4305 41.7735C95.12 46.2637 97.4275 51.7044 101.606 53.9761C105.041 55.843 109.539 54.9061 111.887 51.835C115.631 46.9378 113.772 38.8114 108.272 36.0274C106.477 35.1187 103.524 34.8047 102.045 35.3654ZM106.801 40.0628C107.938 41.0704 108.677 42.9768 108.685 44.9221C108.695 47.514 108.401 48.5252 107.298 49.6936C106.504 50.5351 106.062 50.7503 105.13 50.7503C104.171 50.7503 103.751 50.5323 102.81 49.5439C101.569 48.2405 101.201 47.0338 101.231 44.3617C101.278 40.1854 104.302 37.8504 106.801 40.0628ZM70.3155 42.7992L70.9097 45.501H69.5312C68.3624 45.501 68.1775 45.4189 68.316 44.9607C68.4446 44.5349 69.3445 40.3275 69.4552 39.6343C69.5059 39.3175 69.738 40.1715 70.3155 42.7992Z" fill="#989AA9"/>
</svg>
