<svg width="66" height="66" viewBox="0 0 66 66" fill="none" xmlns="http://www.w3.org/2000/svg">
<path d="M58.5 30.0007V29.0007C57.9477 29.0007 57.5 29.4484 57.5 30.0007H58.5ZM64.5 30.0007H65.5C65.5 29.4484 65.0523 29.0007 64.5 29.0007V30.0007ZM64.5 36.0007V37.0007C65.0523 37.0007 65.5 36.553 65.5 36.0007H64.5ZM58.5 36.0007H57.5C57.5 36.553 57.9477 37.0007 58.5 37.0007V36.0007ZM1 31.0007V30.0007C0.447715 30.0007 0 30.4484 0 31.0007H1ZM7 31.0007H8C8 30.4484 7.55228 30.0007 7 30.0007V31.0007ZM7 37.0007V38.0007C7.55228 38.0007 8 37.553 8 37.0007H7ZM1 37.0007H0C0 37.553 0.447715 38.0007 1 38.0007L1 37.0007ZM30 58.5007V57.5007C29.4477 57.5007 29 57.9484 29 58.5007H30ZM36 58.5007H37C37 57.9484 36.5523 57.5007 36 57.5007V58.5007ZM36 64.5007V65.5007C36.5523 65.5007 37 65.053 37 64.5007H36ZM30 64.5007H29C29 65.053 29.4477 65.5007 30 65.5007V64.5007ZM30 1.00073V0.000732422C29.4477 0.000732422 29 0.448448 29 1.00073L30 1.00073ZM36 1.00073H37C37 0.448448 36.5523 0.000732422 36 0.000732422V1.00073ZM36 7.00073V8.00073C36.5523 8.00073 37 7.55302 37 7.00073H36ZM30 7.00073H29C29 7.55302 29.4477 8.00073 30 8.00073V7.00073ZM63.5 30.0007V36.0007H65.5V30.0007H63.5ZM59.5 36.0007V30.0007H57.5V36.0007H59.5ZM6 31.0007V37.0007H8V31.0007H6ZM2 37.0007V31.0007H0V37.0007H2ZM30 59.5007H36V57.5007H30V59.5007ZM36 63.5007H30V65.5007H36V63.5007ZM30 2.00073H36V0.000732422H30V2.00073ZM36 6.00073H30V8.00073H36V6.00073ZM64.5 35.0007H61.8467V37.0007H64.5V35.0007ZM61.8467 35.0007H58.5V37.0007H61.8467V35.0007ZM58.5 31.0007H61.8467V29.0007H58.5V31.0007ZM61.8467 31.0007H64.5V29.0007H61.8467V31.0007ZM60.8519 35.8985C59.5006 49.0476 49.0468 59.5013 35.8978 60.8527L36.1022 62.8422C50.1941 61.3939 61.3932 50.1949 62.8415 36.103L60.8519 35.8985ZM35 58.5007V61.8474H37V58.5007H35ZM35 61.8474V64.5007H37V61.8474H35ZM31 64.5007V61.8474H29V64.5007H31ZM31 61.8474V58.5007H29V61.8474H31ZM1 32.0007H4V30.0007H1V32.0007ZM30.1022 60.8527C17.2769 59.5346 7.01531 49.5565 5.26423 36.8641L3.28299 37.1374C5.15962 50.7398 16.1523 61.4295 29.8978 62.8422L30.1022 60.8527ZM7 36.0007H4.27361V38.0007H7V36.0007ZM4.27361 36.0007H1V38.0007H4.27361V36.0007ZM4 32.0007H4.06789V30.0007H4V32.0007ZM4.06789 32.0007H7V30.0007H4.06789V32.0007ZM5.06557 31.0687C5.99195 17.4685 16.6327 6.53311 30.1022 5.14878L29.8978 3.15926C15.463 4.64279 4.06297 16.3578 3.0702 30.9328L5.06557 31.0687ZM31 7.00073V4.15402H29V7.00073H31ZM31 4.15402V1.00073H29V4.15402H31ZM35.8978 5.14878C49.0468 6.50017 59.5006 16.9539 60.8519 30.103L62.8415 29.8985C61.3932 15.8066 50.1941 4.60754 36.1022 3.15926L35.8978 5.14878ZM35 1.00073V4.15402H37V1.00073H35ZM35 4.15402V7.00073H37V4.15402H35Z" fill="url(#paint0_linear_117_5449)"/>
<line x1="30" y1="46.0007" x2="36" y2="46.0007" stroke="url(#paint1_linear_117_5449)" stroke-width="2" stroke-linecap="round"/>
<path d="M33 19.0007L23 35.2864L29.6667 43.0007H36.3333L43 35.2864L33 19.0007ZM33 19.0007V32.0916" stroke="url(#paint2_linear_117_5449)" stroke-width="2" stroke-linejoin="round"/>
<circle cx="33" cy="35.0007" r="3" stroke="url(#paint3_linear_117_5449)" stroke-width="2"/>
<defs>
<linearGradient id="paint0_linear_117_5449" x1="1" y1="9.93042" x2="64.5" y2="64.5007" gradientUnits="userSpaceOnUse">
<stop stop-color="#1E74EC"/>
<stop offset="1" stop-color="#002984"/>
</linearGradient>
<linearGradient id="paint1_linear_117_5449" x1="29" y1="47.1414" x2="29.2882" y2="49.1225" gradientUnits="userSpaceOnUse">
<stop stop-color="#1E74EC"/>
<stop offset="1" stop-color="#002984"/>
</linearGradient>
<linearGradient id="paint2_linear_117_5449" x1="23" y1="22.3757" x2="45.9832" y2="38.8351" gradientUnits="userSpaceOnUse">
<stop stop-color="#1E74EC"/>
<stop offset="1" stop-color="#002984"/>
</linearGradient>
<linearGradient id="paint3_linear_117_5449" x1="31" y1="33.5632" x2="35" y2="37.0007" gradientUnits="userSpaceOnUse">
<stop stop-color="#1E74EC"/>
<stop offset="1" stop-color="#002984"/>
</linearGradient>
</defs>
</svg>
