<svg width="126" height="118" viewBox="0 0 126 118" fill="none" xmlns="http://www.w3.org/2000/svg">
<path opacity="0.6" fill-rule="evenodd" clip-rule="evenodd" d="M51.6002 2.91393C67.4844 3.65778 83.693 2.91989 96.4947 11.2187C111.018 20.6339 123.572 34.0967 124.322 50.0565C125.081 66.2115 112.736 79.8221 100.277 91.7155C87.6121 103.806 73.0833 115.755 54.5318 116.678C35.6076 117.619 14.863 110.716 4.98416 96.4552C-3.94735 83.5617 11.369 68.0647 10.3745 52.9329C9.2973 36.5414 -1.25824 26.2748 9.70814 12.9693C20.4924 -0.115248 33.3821 2.06081 51.6002 2.91393Z" fill="#EEEFF1"/>
<path d="M82.2261 76.9771L69.1562 82.278L75.6912 102.99C85.9094 94.9795 84.3054 82.278 82.2261 76.9771Z" fill="#79077B"/>
<path d="M69.453 82.3755L67.9678 82.9645L75.6911 102.99L69.453 82.3755Z" fill="#240644"/>
<path d="M45.7352 56.2103L45.0744 57.6545L25.1936 49.0972L45.7352 56.2103Z" fill="#240644"/>
<path d="M51.783 44.1517L45.6515 56.7632L25.1943 49.0974C33.8802 39.4726 46.5727 41.7717 51.783 44.1517Z" fill="#79077B"/>
<path d="M43.3135 61.1713C64.9379 4.15679 96.1865 5.02588 119.058 12.0938C131.795 58.4996 87.1916 80.4997 65.8885 83.7505C59.9477 70.2978 47.7691 65.0938 43.3135 61.1713Z" fill="url(#paint0_linear_109_13827)"/>
<path d="M91.1367 9.24314C101.83 6.88717 106.633 7.48379 119.406 11.6067C124.235 24.2498 121.573 34.4934 119.952 39.4999C114.961 23.4792 99.4538 13.5624 91.1367 9.24314Z" fill="#79077B"/>
<path d="M102.315 41.3433C102.315 49.7285 95.4569 56.5406 86.9783 56.5406C78.4997 56.5406 71.6411 49.7285 71.6411 41.3433C71.6411 32.9581 78.4997 26.146 86.9783 26.146C95.4569 26.146 102.315 32.9581 102.315 41.3433Z" fill="#DDDDE2" stroke="url(#paint1_linear_109_13827)" stroke-width="2"/>
<path d="M86.9783 53.809C94.0324 53.809 99.751 48.1395 99.751 41.1457C99.751 34.152 94.0324 28.4824 86.9783 28.4824C79.9241 28.4824 74.2056 34.152 74.2056 41.1457C74.2056 48.1395 79.9241 53.809 86.9783 53.809Z" fill="#303C7A"/>
<path d="M65.8191 83.7529C64.043 85.494 57.5157 81.804 51.2399 75.5111C44.9641 69.2181 41.5373 62.9123 43.3134 61.1712C45.0895 59.4302 51.3959 62.9132 57.6717 69.2061C63.9475 75.4991 67.5952 82.0119 65.8191 83.7529Z" fill="url(#paint2_linear_109_13827)"/>
<path d="M48.1163 65.2051L40.3428 68.4369L59.0563 86.1067L62.0266 79.6278C59.6503 74.6214 53.5958 68.3275 48.1163 65.2051Z" fill="#79077B"/>
<path d="M45.534 81.6912C50.7811 86.729 56.6131 89.197 58.5602 87.2036C60.5073 85.2102 57.8322 79.5102 52.5851 74.4724C47.3381 69.4346 41.506 66.9666 39.5589 68.96C37.6118 70.9534 40.2869 76.6533 45.534 81.6912Z" fill="url(#paint3_linear_109_13827)"/>
<path d="M47.7158 80.0683C51.1316 83.3479 54.738 85.1493 55.7708 84.0918C56.8037 83.0344 54.872 79.5185 51.4563 76.239C48.0405 72.9594 44.4342 71.158 43.4013 72.2155C42.3684 73.2729 44.3001 76.7887 47.7158 80.0683Z" fill="url(#paint4_linear_109_13827)"/>
<path d="M27.8674 91.2103C27.8674 91.2103 1.89553 91.0464 16.877 88.8543C31.0968 86.7736 37.6469 81.6018 49.3919 76.5C50.6519 77.5 50.1479 77.0769 50.7395 77.6634C43.6105 87.3818 42.1253 88.8543 35.8875 99.1617C29.6497 109.469 33.5112 94.1552 33.5112 94.1552L9.74805 105.052L27.8674 91.2103Z" fill="url(#paint5_linear_109_13827)"/>
<path opacity="0.2" d="M95.8898 15.8193C105.157 7.80898 114.009 10.2238 119.356 11.9908V4.62842L85.4933 6.68989L31.1351 38.4955L20.7388 55.5763L42.4226 78.2525C42.1256 75.6021 40.0463 71.4791 42.7197 70.8901C44.5019 70.4975 49.8944 72.4314 49.8486 72.0681C49.5516 69.7121 50.3239 62.4086 60.542 55.5763C70.7602 48.744 70.6106 52.1308 76.2851 48.5084C81.4053 45.2398 85.1965 46.7414 88.1668 38.4955C91.1371 30.2496 84.3053 25.8322 95.8898 15.8193Z" fill="url(#paint6_linear_109_13827)"/>
<defs>
<linearGradient id="paint0_linear_109_13827" x1="82.5227" y1="17.8803" x2="77.8505" y2="76.4915" gradientUnits="userSpaceOnUse">
<stop stop-color="#F9943C"/>
<stop offset="1" stop-color="#ECC80A"/>
</linearGradient>
<linearGradient id="paint1_linear_109_13827" x1="98.2658" y1="53.5147" x2="80.6458" y2="28.6337" gradientUnits="userSpaceOnUse">
<stop stop-color="#B8B8B8"/>
<stop offset="1" stop-color="#DBDBDB"/>
</linearGradient>
<linearGradient id="paint2_linear_109_13827" x1="46.6332" y1="63.8774" x2="61.1028" y2="81.0521" gradientUnits="userSpaceOnUse">
<stop stop-color="#79077B"/>
<stop offset="1" stop-color="#380339"/>
</linearGradient>
<linearGradient id="paint3_linear_109_13827" x1="49.5823" y1="85.0813" x2="60.9351" y2="97.3425" gradientUnits="userSpaceOnUse">
<stop stop-color="#A960AB"/>
<stop offset="1" stop-color="#571759"/>
</linearGradient>
<linearGradient id="paint4_linear_109_13827" x1="48.9372" y1="81.0854" x2="57.4838" y2="90.9979" gradientUnits="userSpaceOnUse">
<stop stop-color="#530555"/>
<stop offset="1" stop-color="#220123"/>
</linearGradient>
<linearGradient id="paint5_linear_109_13827" x1="46.5809" y1="79.4304" x2="7.88721" y2="106.541" gradientUnits="userSpaceOnUse">
<stop stop-color="#EB5757"/>
<stop offset="1" stop-color="#FDBB11"/>
</linearGradient>
<linearGradient id="paint6_linear_109_13827" x1="28.7588" y1="10.8129" x2="80.6224" y2="59.2604" gradientUnits="userSpaceOnUse">
<stop stop-color="#FFFEFE" stop-opacity="0"/>
<stop offset="1" stop-color="#FDFDFD"/>
</linearGradient>
</defs>
</svg>
