<svg width="64" height="54" viewBox="0 0 64 54" fill="none" xmlns="http://www.w3.org/2000/svg">
<mask id="path-1-inside-1_117_5437" fill="white">
<path d="M0.750031 33.6978C0.750031 33.3526 1.02985 33.0728 1.37503 33.0728H12.9456C13.2908 33.0728 13.5706 33.3526 13.5706 33.6978V53.3759C13.5706 53.7211 13.2908 54.0009 12.9456 54.0009H1.37503C1.02985 54.0009 0.750031 53.7211 0.750031 53.3759V33.6978Z"/>
<path d="M16.7757 22.4288C16.7757 22.0836 17.0555 21.8038 17.4007 21.8038H28.9713C29.3164 21.8038 29.5963 22.0836 29.5963 22.4288V53.3759C29.5963 53.7211 29.3164 54.0009 28.9713 54.0009H17.4007C17.0555 54.0009 16.7757 53.7211 16.7757 53.3759V22.4288Z"/>
<path d="M34.404 11.1599C34.404 10.8147 34.6838 10.5349 35.029 10.5349H46.5995C46.9447 10.5349 47.2245 10.8147 47.2245 11.1599V53.3759C47.2245 53.7211 46.9447 54.0009 46.5995 54.0009H35.029C34.6838 54.0009 34.404 53.7211 34.404 53.3759V11.1599Z"/>
<path d="M50.4297 1.50073C50.4297 1.15556 50.7095 0.875732 51.0547 0.875732H62.6252C62.9704 0.875732 63.2502 1.15556 63.2502 1.50073V53.3759C63.2502 53.7211 62.9704 54.0009 62.6252 54.0009H51.0547C50.7095 54.0009 50.4297 53.7211 50.4297 53.3759V1.50073Z"/>
</mask>
<path d="M1.37503 35.0728H12.9456V31.0728H1.37503V35.0728ZM11.5706 33.6978V53.3759H15.5706V33.6978H11.5706ZM12.9456 52.0009H1.37503V56.0009H12.9456V52.0009ZM2.75003 53.3759V33.6978H-1.24997V53.3759H2.75003ZM17.4007 23.8038H28.9713V19.8038H17.4007V23.8038ZM27.5963 22.4288V53.3759H31.5963V22.4288H27.5963ZM28.9713 52.0009H17.4007V56.0009H28.9713V52.0009ZM18.7757 53.3759V22.4288H14.7757V53.3759H18.7757ZM35.029 12.5349H46.5995V8.53485H35.029V12.5349ZM45.2245 11.1599V53.3759H49.2245V11.1599H45.2245ZM46.5995 52.0009H35.029V56.0009H46.5995V52.0009ZM36.404 53.3759V11.1599H32.404V53.3759H36.404ZM51.0547 2.87573H62.6252V-1.12427H51.0547V2.87573ZM61.2502 1.50073V53.3759H65.2502V1.50073H61.2502ZM62.6252 52.0009H51.0547V56.0009H62.6252V52.0009ZM52.4297 53.3759V1.50073H48.4297V53.3759H52.4297ZM51.0547 52.0009C51.8141 52.0009 52.4297 52.6165 52.4297 53.3759H48.4297C48.4297 54.8256 49.6049 56.0009 51.0547 56.0009V52.0009ZM61.2502 53.3759C61.2502 52.6165 61.8658 52.0009 62.6252 52.0009V56.0009C64.075 56.0009 65.2502 54.8256 65.2502 53.3759H61.2502ZM62.6252 2.87573C61.8658 2.87573 61.2502 2.26012 61.2502 1.50073H65.2502C65.2502 0.0509868 64.075 -1.12427 62.6252 -1.12427V2.87573ZM51.0547 -1.12427C49.6049 -1.12427 48.4297 0.0509857 48.4297 1.50073H52.4297C52.4297 2.26012 51.8141 2.87573 51.0547 2.87573V-1.12427ZM35.029 52.0009C35.7884 52.0009 36.404 52.6165 36.404 53.3759H32.404C32.404 54.8256 33.5792 56.0009 35.029 56.0009V52.0009ZM45.2245 53.3759C45.2245 52.6165 45.8401 52.0009 46.5995 52.0009V56.0009C48.0493 56.0009 49.2245 54.8256 49.2245 53.3759H45.2245ZM46.5995 12.5349C45.8401 12.5349 45.2245 11.9192 45.2245 11.1599H49.2245C49.2245 9.71011 48.0493 8.53485 46.5995 8.53485V12.5349ZM35.029 8.53485C33.5792 8.53485 32.404 9.71012 32.404 11.1599H36.404C36.404 11.9192 35.7884 12.5349 35.029 12.5349V8.53485ZM17.4007 52.0009C18.1601 52.0009 18.7757 52.6165 18.7757 53.3759H14.7757C14.7757 54.8256 15.951 56.0009 17.4007 56.0009V52.0009ZM27.5963 53.3759C27.5963 52.6165 28.2119 52.0009 28.9713 52.0009V56.0009C30.421 56.0009 31.5963 54.8256 31.5963 53.3759H27.5963ZM28.9713 23.8038C28.2119 23.8038 27.5963 23.1882 27.5963 22.4288H31.5963C31.5963 20.9791 30.421 19.8038 28.9713 19.8038V23.8038ZM17.4007 19.8038C15.951 19.8038 14.7757 20.9791 14.7757 22.4288H18.7757C18.7757 23.1882 18.1601 23.8038 17.4007 23.8038V19.8038ZM1.37503 52.0009C2.13442 52.0009 2.75003 52.6165 2.75003 53.3759H-1.24997C-1.24997 54.8256 -0.074717 56.0009 1.37503 56.0009V52.0009ZM11.5706 53.3759C11.5706 52.6165 12.1862 52.0009 12.9456 52.0009V56.0009C14.3953 56.0009 15.5706 54.8256 15.5706 53.3759H11.5706ZM12.9456 35.0728C12.1862 35.0728 11.5706 34.4572 11.5706 33.6978H15.5706C15.5706 32.2481 14.3953 31.0728 12.9456 31.0728V35.0728ZM1.37503 31.0728C-0.0747161 31.0728 -1.24997 32.2481 -1.24997 33.6978H2.75003C2.75003 34.4572 2.13442 35.0728 1.37503 35.0728V31.0728Z" fill="url(#paint0_linear_117_5437)" mask="url(#path-1-inside-1_117_5437)"/>
<defs>
<linearGradient id="paint0_linear_117_5437" x1="0.75003" y1="8.34646" x2="54.4832" y2="62.6723" gradientUnits="userSpaceOnUse">
<stop stop-color="#1E74EC"/>
<stop offset="1" stop-color="#002984"/>
</linearGradient>
</defs>
</svg>
