<svg width="2" height="11" viewBox="0 0 2 11" fill="none" xmlns="http://www.w3.org/2000/svg">
<path d="M1.80999 0.000244141L1.68072 7.2538H0.303594L0.174333 0.000244141H1.80999ZM0.994645 10.2765C0.71955 10.2765 0.484229 10.1804 0.288679 9.98817C0.09313 9.79262 -0.00298742 9.5573 0.000327002 9.2822C-0.00298742 9.01042 0.09313 8.77842 0.288679 8.58618C0.484229 8.39063 0.71955 8.29286 0.994645 8.29286C1.26311 8.29286 1.49512 8.39063 1.69067 8.58618C1.88622 8.77842 1.98565 9.01042 1.98896 9.2822C1.98565 9.4645 1.93759 9.63187 1.84479 9.78434C1.7553 9.93348 1.63598 10.0528 1.48683 10.1423C1.33768 10.2318 1.17362 10.2765 0.994645 10.2765Z" fill="url(#paint0_linear_117_5418)"/>
<defs>
<linearGradient id="paint0_linear_117_5418" x1="0.000244127" y1="1.44535" x2="3.36463" y2="2.00488" gradientUnits="userSpaceOnUse">
<stop stop-color="#1E74EC"/>
<stop offset="1" stop-color="#002984"/>
</linearGradient>
</defs>
</svg>
