<svg width="64" height="70" viewBox="0 0 64 70" fill="none" xmlns="http://www.w3.org/2000/svg">
<path d="M1 45.0007C0.447715 45.0007 0 45.4484 0 46.0007C0 46.553 0.447715 47.0007 1 47.0007V45.0007ZM8 47.0007C8.55228 47.0007 9 46.553 9 46.0007C9 45.4484 8.55228 45.0007 8 45.0007V47.0007ZM24 45.0007C23.4477 45.0007 23 45.4484 23 46.0007C23 46.553 23.4477 47.0007 24 47.0007V45.0007ZM31 47.0007C31.5523 47.0007 32 46.553 32 46.0007C32 45.4484 31.5523 45.0007 31 45.0007V47.0007ZM47 45.0007C46.4477 45.0007 46 45.4484 46 46.0007C46 46.553 46.4477 47.0007 47 47.0007V45.0007ZM54 47.0007C54.5523 47.0007 55 46.553 55 46.0007C55 45.4484 54.5523 45.0007 54 45.0007V47.0007ZM24 5.00073C23.4477 5.00073 23 5.44845 23 6.00073C23 6.55302 23.4477 7.00073 24 7.00073V5.00073ZM31 7.00073C31.5523 7.00073 32 6.55302 32 6.00073C32 5.44845 31.5523 5.00073 31 5.00073V7.00073ZM10 63.0007C9.44772 63.0007 9 63.4484 9 64.0007C9 64.553 9.44772 65.0007 10 65.0007V63.0007ZM17 65.0007C17.5523 65.0007 18 64.553 18 64.0007C18 63.4484 17.5523 63.0007 17 63.0007V65.0007ZM33 63.0007C32.4477 63.0007 32 63.4484 32 64.0007C32 64.553 32.4477 65.0007 33 65.0007V63.0007ZM40 65.0007C40.5523 65.0007 41 64.553 41 64.0007C41 63.4484 40.5523 63.0007 40 63.0007V65.0007ZM56 63.0007C55.4477 63.0007 55 63.4484 55 64.0007C55 64.553 55.4477 65.0007 56 65.0007V63.0007ZM63 65.0007C63.5523 65.0007 64 64.553 64 64.0007C64 63.4484 63.5523 63.0007 63 63.0007V65.0007ZM33 23.0007C32.4477 23.0007 32 23.4484 32 24.0007C32 24.553 32.4477 25.0007 33 25.0007V23.0007ZM40 25.0007C40.5523 25.0007 41 24.553 41 24.0007C41 23.4484 40.5523 23.0007 40 23.0007V25.0007ZM33 29.0007C33 28.4484 32.5523 28.0007 32 28.0007C31.4477 28.0007 31 28.4484 31 29.0007H33ZM9 34.0007V33.0007C8.44772 33.0007 8 33.4484 8 34.0007H9ZM55 34.0007H56C56 33.4484 55.5523 33.0007 55 33.0007V34.0007ZM8 41.0007C8 41.553 8.44772 42.0007 9 42.0007C9.55228 42.0007 10 41.553 10 41.0007H8ZM31 41.0007C31 41.553 31.4477 42.0007 32 42.0007C32.5523 42.0007 33 41.553 33 41.0007H31ZM54 41.0007C54 41.553 54.4477 42.0007 55 42.0007C55.5523 42.0007 56 41.553 56 41.0007H54ZM2 42.0007H16V40.0007H2V42.0007ZM16 42.0007V68.0007H18V42.0007H16ZM16 68.0007H2V70.0007H16V68.0007ZM2 68.0007V42.0007H0V68.0007H2ZM2 68.0007H0C0 69.1053 0.895431 70.0007 2 70.0007V68.0007ZM16 68.0007V70.0007C17.1046 70.0007 18 69.1053 18 68.0007H16ZM16 42.0007H18C18 40.8962 17.1046 40.0007 16 40.0007V42.0007ZM2 40.0007C0.895431 40.0007 0 40.8962 0 42.0007H2V40.0007ZM25 42.0007H39V40.0007H25V42.0007ZM39 42.0007V68.0007H41V42.0007H39ZM39 68.0007H25V70.0007H39V68.0007ZM25 68.0007V42.0007H23V68.0007H25ZM25 68.0007H23C23 69.1053 23.8954 70.0007 25 70.0007V68.0007ZM39 68.0007V70.0007C40.1046 70.0007 41 69.1053 41 68.0007H39ZM39 42.0007H41C41 40.8962 40.1046 40.0007 39 40.0007V42.0007ZM25 40.0007C23.8954 40.0007 23 40.8962 23 42.0007H25V40.0007ZM48 42.0007H62V40.0007H48V42.0007ZM62 42.0007V68.0007H64V42.0007H62ZM62 68.0007H48V70.0007H62V68.0007ZM48 68.0007V42.0007H46V68.0007H48ZM48 68.0007H46C46 69.1053 46.8954 70.0007 48 70.0007V68.0007ZM62 68.0007V70.0007C63.1046 70.0007 64 69.1053 64 68.0007H62ZM62 42.0007H64C64 40.8962 63.1046 40.0007 62 40.0007V42.0007ZM48 40.0007C46.8954 40.0007 46 40.8962 46 42.0007H48V40.0007ZM25 2.00073H39V0.000732422H25V2.00073ZM39 2.00073V28.0007H41V2.00073H39ZM39 28.0007H25V30.0007H39V28.0007ZM25 28.0007V2.00073H23V28.0007H25ZM25 28.0007H23C23 29.1053 23.8954 30.0007 25 30.0007V28.0007ZM39 28.0007V30.0007C40.1046 30.0007 41 29.1053 41 28.0007H39ZM39 2.00073H41C41 0.896163 40.1046 0.000732422 39 0.000732422V2.00073ZM25 0.000732422C23.8954 0.000732422 23 0.896162 23 2.00073H25V2.00073V0.000732422ZM1 47.0007H8V45.0007H1V47.0007ZM24 47.0007H31V45.0007H24V47.0007ZM47 47.0007H54V45.0007H47V47.0007ZM24 7.00073H31V5.00073H24V7.00073ZM10 65.0007H17V63.0007H10V65.0007ZM33 65.0007H40V63.0007H33V65.0007ZM56 65.0007H63V63.0007H56V65.0007ZM33 25.0007H40V23.0007H33V25.0007ZM31 29.0007V34.0007H33V29.0007H31ZM9 35.0007H55V33.0007H9V35.0007ZM8 34.0007V41.0007H10V34.0007H8ZM31 34.0007V41.0007H33V34.0007H31ZM54 34.0007V41.0007H56V34.0007H54Z" fill="url(#paint0_linear_117_5444)"/>
<defs>
<linearGradient id="paint0_linear_117_5444" x1="1" y1="10.5632" x2="67.7857" y2="62.893" gradientUnits="userSpaceOnUse">
<stop stop-color="#1E74EC"/>
<stop offset="1" stop-color="#002984"/>
</linearGradient>
</defs>
</svg>
